<svg version="1.1" xmlns="http://www.w3.org/2000/svg" xmlns:xlink="http://www.w3.org/1999/xlink" x="0px" y="0px" viewBox="0 0 500 500" style="enable-background:new 0 0 500 500;" xml:space="preserve">
<g id="BACKGROUND">
	<rect style="fill:#1F2937;" width="500" height="500"/>
</g>
<g id="OBJECTS">
	<g>
		<g>
			<path d="M417.378,169.545c-0.184-0.517-0.958-0.559-1.22-0.082c-0.253,0.846-0.377,1.746-0.454,2.897     c-0.089,3.598,0.19,3.467-1.967,5.963c-1.389,1.662-2.292,3.978-3.46,5.045c-1.016,0.942-2.08,1.408-3.798,1.886     c-0.928,0.303-3.128,0.766-3.278,0.736c-0.823,0.114-1.652,0.194-2.483,0.134c-0.957-0.085-2.395-0.236-3.845-0.738     c-0.047-0.019-0.083-0.033-0.109-0.043c-2.115-0.975-3.596-2.432-4.653-3.83c-1.9-2.664-3.07-5.741-4.391-8.712     c-0.03-0.07-0.061-0.139-0.092-0.209c0.445,0.488,0.889,0.977,1.334,1.465c3.309,3.505,6.865,7.855,10.866,9.392     c1.19,0.501,2.462,0.845,3.756,0.889c0.929,0.005,1.855-0.16,2.753-0.392c1.039-0.292,2.083-0.668,2.921-1.367     c0.461-0.373,1.159-0.674,0.592-1.443c-0.278-0.287-0.715-0.242-1.008-0.007c-0.314,0.195-0.63,0.389-0.955,0.565     c-0.075,0.042-0.092,0.052-0.102,0.057c0.001,0,0.001,0,0.002-0.001c-0.777,0.433-2.644,0.881-3.431,0.94     c-1.405,0.12-2.349-0.149-3.909-0.763c0.076,0.033,0.11,0.055-0.046-0.018c-0.019-0.008-0.037-0.014-0.056-0.022     c0.013,0.005,0.027,0.01,0.041,0.015c-0.876-0.379-1.717-0.849-2.48-1.423c-0.832-0.662-1.626-1.373-2.393-2.109     c-0.808-0.785-1.559-1.627-2.323-2.455c-1.635-1.791-3.265-3.589-4.931-5.352c-0.996-1.027-2.06-1.988-3.05-3.022     c-1.345-1.416-2.057-2.489-2.56-4.417c-0.568-2.165-1.266-4.324-2.45-6.238c-0.272-0.432-0.577-0.842-0.871-1.26     c-0.099-0.169-0.26-0.292-0.448-0.344c-0.621-0.182-1.192,0.536-0.846,1.1c1.411,1.96,1.867,3.266,2.554,5.426     c0.229,0.762,0.429,1.537,0.677,2.294c-0.817-0.6-1.651-1.169-2.377-1.765c0.068,0.053,0.136,0.105,0.204,0.157     c-0.06-0.047-0.152-0.118-0.231-0.179c-0.801-0.628-1.561-1.31-2.249-2.062c-1.494-1.648-2.042-2.447-3.283-4.169     c-1.579-2.243-3.112-4.249-4.468-6.066c-0.523-0.854-1.812-0.119-1.325,0.774c0.715,0.99,1.402,1.999,2.08,3.014     c-0.713-0.553-1.468-1.142-2.233-1.774c-1.164-0.964-3.157-2.222-4.337-3.302c-1.252-1.164-2.503-2.342-3.628-3.63     c-0.294-0.343-1.362-1.906-1.926-2.968c-1.626-3.01-2.422-6.022-3.665-9.718c-0.983-2.908-2.153-5.75-3.293-8.6     c-0.518-1.287-1.057-2.567-1.641-3.826c-0.231-0.503-0.456-1.008-0.683-1.513c-0.045-0.084-0.107-0.151-0.185-0.201     c-0.51-0.424-1.321,0.099-1.127,0.755c1.735,4.122,3.35,9.195,4.925,13.976c1.326,4.41,2.675,8.964,5.633,12.594     c0.698,0.927,1.578,1.687,2.45,2.444c0.938,0.819,1.857,1.664,2.855,2.41c1.07,0.827,2.212,1.553,3.295,2.363     c0.62,0.46,1.512,1.175,2.448,1.885c-0.036,0.085-0.057,0.182-0.057,0.29c-0.546,5.398-2.106,11.996-2.647,18.041     c-0.257,2.858-0.466,5.722-0.591,8.589c-0.091,3.599-0.255,7.198-0.69,10.774c-0.4,3.31-0.93,6.644-1.492,10.371     c-0.597,4.115-1.23,8.226-2.038,12.305c-0.759,3.825-1.717,7.606-2.633,11.396c-0.852,3.546-1.672,7.099-2.546,10.639     c-0.322,1.341-0.644,2.682-0.972,4.022c-0.097,0.395-0.191,0.791-0.285,1.186c-0.096,0.284-0.082,0.636,0.189,0.815     c0.234,0.199,0.611,0.168,0.826-0.049c0.142-0.132,0.173-0.325,0.224-0.503c0.098-0.354,0.195-0.709,0.289-1.065     c0.364-1.373,0.731-2.746,1.085-4.122c1.594-6.405,3.186-12.811,4.667-19.243c1.058-4.749,1.825-9.556,2.539-14.367     c0.694-4.641,1.499-9.27,1.935-13.945c0.359-3.433,0.356-6.887,0.543-10.331c0.179-2.96,0.366-5.923,0.718-8.869     c0.258-2.195,0.841-5.624,1.312-8.439c0.269-1.601,0.511-3.207,0.745-4.814c0.078-0.567,0.151-1.135,0.21-1.705     c0.453,0.324,0.906,0.648,1.365,0.963c0.183,0.104,0.347,0.263,0.534,0.362c0.264,0.396,0.529,0.792,0.797,1.186     c1.345,1.933,2.754,3.888,4.629,5.345c1.768,1.435,4.062,2.557,5.222,3.744c0.461,0.439,0.698,0.731,0.921,0.807     c0.076,0.038,0.155,0.057,0.233,0.064c0.358,0.432,0.736,0.849,1.121,1.258c1.416,3.409,2.313,5.521,3.822,9.063     c0.775,1.701,1.679,3.359,2.881,4.799c1.296,1.474,2.862,2.764,4.666,3.56c0.822,0.373,1.707,0.558,2.594,0.704     c0.832,0.147,1.67,0.279,2.515,0.304c1.637,0.002,3.284-0.258,4.865-0.675c1.094-0.287,2.19-0.584,3.22-1.059     c1.294-0.588,2.3-1.572,2.792-2.213c0.615-0.76,1.093-1.612,1.582-2.455c0.409-0.686,1.346-2.038,1.417-2.09     c1.82-2.09,2.363-2.751,2.288-5.64c-0.013-0.877-0.017-1.755,0.051-2.631c0.022-0.374,0.047-0.747,0.075-1.121     C417.439,169.816,417.45,169.669,417.378,169.545z" fill="#ffffff"/>
			<path d="M407.779,181.754c0.001-0.001,0.003-0.002,0.004-0.002C407.771,181.757,407.767,181.759,407.779,181.754z" fill="#ffffff"/>
			<path d="M400.399,181.91c0.016,0.006,0.031,0.012,0.046,0.018c-0.019-0.008-0.04-0.017-0.062-0.025     c0.004,0.002,0.008,0.004,0.012,0.006C400.397,181.909,400.398,181.91,400.399,181.91z" fill="#ffffff"/>
		</g>
		<path d="M405.481,167.69c-0.213-0.007-0.394,0.097-0.561,0.215c-0.296,0.192-0.587,0.393-0.872,0.602    c-0.648,0.516-1.943,1.244-2.068,1.259c-1.062,0.363-2.239,0.58-2.748,0.592c-0.851-0.021-0.61,0.038-1.216-0.13    c-0.038-0.016-0.066-0.028-0.089-0.038c-0.397-0.185-0.769-0.42-1.119-0.683c-1.479-1.199-2.746-2.636-4.107-3.964    c-1.232-1.292-2.564-2.487-3.749-3.823c-0.289-0.359-0.749-1.078-0.944-2.113c-0.071-0.425-0.201-1.709,0.041-2.26    c0.275-0.846,0.544-1.259,1.096-2.308c0.543-1.025,1.098-1.592,2.187-2.507c0.117-0.082,0.35-0.242,0.436-0.285    c0.079-0.061,0.339-0.18,0.481-0.242c1.011-0.371,2.055-0.644,3.053-1.051c0.869-0.258,0.518-1.553-0.368-1.334    c-1.634,0.661-3.516,0.85-4.854,2.093c-1.618,1.281-2.591,3.152-3.382,5.018c-0.602,1.675-0.293,3.781,0.557,5.322    c0.771,1.263,1.93,2.222,2.942,3.284c1.334,1.355,2.653,2.727,4,4.07c1.175,1.126,2.467,2.43,4.163,2.615    c0.903,0.117,1.807-0.03,2.684-0.246c0.911-0.195,1.801-0.503,2.592-1.003c0.89-0.565,2.169-1.513,2.461-1.826    C406.511,168.47,406.105,167.674,405.481,167.69z" fill="#ffffff"/>
		<g>
			<path d="M403.646,165.584C403.634,165.475,403.625,165.445,403.646,165.584L403.646,165.584z" fill="#ffffff"/>
			<path d="M404.871,163.426c-0.338-0.795-0.965-1.421-1.661-1.913c-0.872-0.688-1.845-1.228-2.802-1.785     c-1.793-1.032-3.713-2.01-3.729-2.707c-0.102-0.032,0.054-1.301-0.24-2.026c-0.576-1.71-2.157-1.32-3.538-0.985     c-0.535,0.132-1.054,0.317-1.557,0.542c-0.222,0.113-0.502,0.167-0.643,0.39c-0.53,0.647,0.282,1.56,0.996,1.135     c0.483-0.267,2.206-0.735,2.721-0.733c0.099-0.015,0.271-0.009,0.351-0.007c0.002,0,0.003,0.001,0.005,0.002     c0.008,0.013,0.015,0.025,0.027,0.044c0.002,0.004,0.003,0.006,0.005,0.009c0.05,0.133,0.086,0.271,0.111,0.411     c0.033,0.713-0.018,1.454,0.323,2.107c0.382,0.873,1.229,1.394,2.017,1.862c0.882,0.514,1.786,0.989,2.679,1.482     c0.99,0.522,2.008,1.205,2.454,1.574c-0.038-0.027-0.224-0.176-0.109-0.082c0.991,0.888,1.037,0.919,1.285,2.258     c0.009,0.056,0.016,0.113,0.024,0.169c-0.07-0.505,0.043,0.296,0.072,0.498c-0.006-0.035-0.01-0.064-0.014-0.088     c0.004,0.034,0.008,0.075,0.012,0.122c0.006,0.062,0.018,0.157,0.028,0.24c0,0.119,0.018,0.234,0.075,0.338     c0.069,0.206,0.246,0.383,0.452,0.452c0.531,0.266,1.222-0.209,1.184-0.8C405.331,165.086,405.217,164.213,404.871,163.426z" fill="#ffffff"/>
		</g>
		<g>
			<path d="M391.693,50.797C391.705,50.705,391.709,50.678,391.693,50.797L391.693,50.797z" fill="#ffffff"/>
			<path d="M417.909,159.639c-0.077-0.926-0.022-0.981,0.178-1.728c0.399-1.312,1.24-2.641,0.745-4.044     c-0.266-0.828-0.783-1.532-1.282-2.232c-0.553-0.829-0.521-1.05-0.59-1.262c-0.054-1.217-0.04-1.553-0.721-2.324     c-0.251-0.283-1.178-0.836-1.355-1.007c-0.74-0.623-1.328-1.402-1.935-2.149c-0.386-0.436-1.487-1.983-2.159-3.515     c-0.111-0.236-0.222-0.473-0.333-0.709c0.084-0.163,0.112-0.357,0.052-0.558c-0.789-2.206-1.466-3.189-2.337-5.715     c-0.604-1.789-0.995-3.641-1.38-5.486c-0.407-2.01-0.631-3.094-0.773-4.77c-0.188-2.18-0.084-4.369-0.057-6.553     c0.028-1.853-0.067-3.705-0.082-5.557c-0.017-1.969,0.036-3.945-0.299-5.893c-0.226-1.345-0.572-2.667-0.916-3.986     c-0.135-0.496-0.279-0.989-0.433-1.479c-0.031-0.083-0.052-0.172-0.079-0.257c0.012-0.026,0.031-0.08,0.062-0.178     c0.125-0.342,0.251-0.684,0.35-1.035c0.301-0.921,0.718-2.407,0.723-2.734c0.838,0.124,1.696-0.026,2.506-0.285     c0.468-0.164,1.285-0.426,1.862-0.823c0.588-0.368,1.07-0.91,0.808-1.612c-0.123-0.341-0.479-0.545-0.83-0.561     c-0.205,0.004-0.407,0.054-0.61,0.086c-0.061,0.006-0.122,0.011-0.184,0.014c-0.918-0.012-0.491-0.022-1.255-0.102     c-0.004-0.001-0.008-0.001-0.012-0.001c-0.874-0.121-0.558-0.078-1.446-0.192c-0.221-0.015-0.453-0.052-0.68-0.055     c0.009-0.101,0.017-0.201,0.029-0.302c0.111-0.703,0.37-1.383,0.38-2.101c0.015-1.328-0.5-2.713-1.651-3.452     c-1.217-0.923-2.6-1.598-3.874-2.438c-0.626-0.364-1.305-0.749-1.351-0.858c-0.137-0.021-0.829-1.482-1.312-2.186     c-0.79-1.297-1.891-2.352-2.924-3.452c-1.278-1.335-2.539-2.687-3.763-4.073c-0.628-0.689-1.014-1.106-1.324-1.61     c-0.03-0.04-0.057-0.081-0.082-0.125c-0.007-0.104-0.036-0.211-0.099-0.315c-0.445-0.803-0.744-1.858-0.787-2.497     c0.052,0.421-0.038-0.308-0.076-0.672c1.794-3.422,4.308-6.411,6.038-9.867c0.808-1.669,1.216-3.497,1.478-5.324     c0.737-5.035,0.787-10.136,1.392-15.185c0.165-1.516,0.518-3.649,0.95-5.653c0.192-0.934,0.394-1.867,0.571-2.805     c0.072-0.461,0.201-0.93,0.121-1.397c-0.073-0.531-0.633-0.892-1.145-0.7c-0.934,0.378-1.293,1.431-1.805,2.221     c-0.693,1.241-1.44,2.451-2.2,3.652c-1.223,1.954-2.471,3.892-3.73,5.823c-0.994,1.586-1.974,3.182-3.034,4.726     c-1.331,2.024-2.546,3.741-3.892,5.39c0.594,0.002,1.184,0.13,1.71,0.373c2.357-3.063,4.439-6.329,6.439-9.634     c1.656-2.621,3.336-5.229,4.893-7.911c0.348-0.633,0.955-1.769,1.369-2.528c-0.544,2.494-1.219,4.962-1.554,7.497     c-0.672,4.462-0.887,8.974-1.401,13.453c-0.273,2.449-0.762,5.678-1.962,7.772c-1.354,2.543-2.988,4.922-4.422,7.417     c-0.044-2.352,0.583-3.964,1.669-6.036c0.639-1.188,1.294-2.372,1.774-3.637c0.491-1.3,0.808-2.662,1.017-4.035     c0.105-0.701,0.196-1.406,0.237-2.114c0.018-0.314,0.088-0.675-0.17-0.913c-0.294-0.306-0.836-0.234-1.046,0.135     c-0.062,0.105-0.089,0.219-0.091,0.339c-0.006,0.044-0.012,0.094-0.018,0.138c-0.015,0.109-0.044,0.317-0.057,0.4     c-0.021,0.136-0.042,0.272-0.059,0.409c0.003-0.025,0.006-0.043,0.008-0.061c-0.004,0.033-0.01,0.075-0.016,0.121     c0.042-0.315,0.006-0.045-0.02,0.128c-0.238,1.503-0.536,3.004-1.022,4.449c-0.703,2.253-2.979,4.984-3.623,7.908     c-0.364,1.512-0.285,3.083-0.114,4.617c0.13,1.044,0.202,2.111,0.551,3.11c0.253,0.638,0.145,0.397,0.473,1.08     c0.155,0.252,0.23,0.58,0.477,0.758c0.004,0.003,0.008,0.005,0.012,0.008c0.369,0.653,0.823,1.255,1.287,1.845     c0.387,0.493,1.548,1.915,2.35,2.852c1.056,1.234,2.905,3.289,3.394,3.943c0.635,0.902,1.183,1.861,1.775,2.791     c0.498,0.825,1.356,1.265,2.177,1.704c1.278,0.806,2.654,1.455,3.888,2.329c0.237,0.198,0.386,0.253,0.564,0.565     c0.105,0.218,0.397,1.071,0.306,1.674c-0.001,0.007-0.001,0.01-0.002,0.016c-0.141,0.717-0.362,1.419-0.401,2.154     c-0.077,0.896-0.137,3.143-0.184,3.17c-0.178,1.031-0.521,2.033-0.869,3.017c-0.014,0.031-0.021,0.049-0.026,0.06     c-0.016,0.035-0.032,0.07-0.048,0.106c-0.004,0.009-0.007,0.015-0.013,0.027c-0.069,0.151-0.276,0.541-0.194,0.457     c-0.067,0.1-0.119,0.209-0.159,0.325c-0.138,0.466,0.111,0.9,0.486,1.103c0.358,1.523,0.801,3.026,1.125,4.558     c0.429,1.851,0.395,3.96,0.403,6.34c0.074,3.089,0.003,6.176-0.108,9.262c-0.09,3.319,0.472,6.601,1.152,9.837     c0.397,1.927,1.038,3.794,1.832,5.592c0.629,1.289,1.188,2.266,1.576,3.228c-0.067,0.183-0.062,0.394,0.06,0.6     c0.635,1.351,1.208,2.74,1.985,4.017c0.715,1.096,1.529,2.131,2.396,3.112c1.592,1.604,2.12,1.228,2.128,2.307     c0.099,0.717,0.035,0.663,0.406,1.517c0.259,0.561,0.659,1.036,1.039,1.519c0.574,0.81,1.052,1.575,0.663,2.583     c-0.252,0.595-0.454,1.092-0.611,1.526c-0.018-0.007-0.034-0.016-0.053-0.021c-0.677-0.166-0.859,0.684-1.148,1.117     c-0.499,0.873-0.882,1.806-0.948,2.819c-0.233,1.61,0.057,3.225,0.112,4.837c0.034,0.76-0.146,1.561,0.048,2.3     c-0.023,0-0.047,0-0.07-0.001c-0.102-0.02-0.201-0.051-0.298-0.088c-0.591-0.28-1.144-0.638-1.704-0.974     c-0.897-0.556-1.797-1.161-2.834-1.415c-0.922-0.247-1.968,0.071-2.557,0.832c-0.208,0.283-0.527,0.538-0.514,0.921     c-0.023,0.696,0.904,1.08,1.381,0.572c0.385-0.439,0.399-0.493,0.575-0.596c0.055-0.016,0.131-0.037,0.204-0.054     c0.029-0.002,0.073-0.004,0.132-0.007c0.056,0.001,0.095,0.002,0.125,0.003c0.191,0.047,0.481,0.154,0.573,0.188     c0,0,0.001,0,0.001,0.001c0.248,0.07,2.367,1.246,3.396,1.633c0.659,0.269,1.363,0.569,2.085,0.381     c0.19-0.048,0.331-0.165,0.419-0.313c0.323,0.128,0.687,0.132,1.014-0.049c0.43-0.255,0.701-0.696,0.98-1.097     c0.556-0.952,0.812-2.064,0.934-3.152c0.109-0.995,0.02-2.001-0.181-2.978C418.294,161.19,418.033,160.429,417.909,159.639z      M416.819,165.66c-0.106,0.586-0.007,0.171-0.199,0.851c-0.218,0.605-0.106,0.401-0.411,0.87     c-0.001-0.019-0.003-0.038-0.004-0.058c-0.015-0.629,0.045-1.259-0.013-1.888c-0.087-1.258-0.292-2.513-0.248-3.777     c0.017-0.895,0.136-1.473,0.397-2.12c0.036,0.702,0.209,1.491,0.468,2.693c0.086,0.643,0.146,0.606,0.171,1.854     C416.986,164.911,416.811,165.623,416.819,165.66z" fill="#ffffff"/>
		</g>
		<path d="M363.373,131.188c-0.159-0.377-0.32-0.753-0.496-1.122c-0.794-1.668-1.631-2.848-2.966-4.575    c-2.491-3.429-5.95-6.123-7.837-9.273c-1.364-2.245-2.092-3.714-2.757-6.12c-0.243-0.885-0.437-1.781-0.642-2.675    c-0.158-0.451-0.106-1.063-0.554-1.341c-0.526-0.329-1.245,0.214-1.058,0.813c0.433,1.714,0.69,3.477,1.244,5.159    c0.727,2.213,1.784,4.309,3.095,6.233c1.526,2.147,3.46,3.954,5.219,5.903c1.584,1.757,3.239,3.978,4.054,5.211    c0.523,0.806,1.011,1.635,1.471,2.479c0.255,0.579,1.157,0.512,1.314-0.11C363.514,131.264,363.417,131.35,363.373,131.188z" fill="#ffffff"/>
		<path d="M398.428,119.06c-0.032-0.092-0.064-0.184-0.095-0.275c-0.017-0.054-0.038-0.107-0.059-0.159c0-0.001,0-0.003-0.002-0.007    c-0.035-0.087-0.071-0.175-0.106-0.262c-0.239-0.583-0.461-1.173-0.707-1.753c0.026,0.063,0.053,0.126,0.079,0.188    c-1.374-3.17-2.423-6.463-3.424-9.766c-1.33-4.37-3.03-8.736-6.024-12.253c-1.556-1.855-2.401-2.889-3.614-4.994    c-1.229-2.062-2.525-4.091-3.543-6.269c-0.846-1.823-1.891-4.657-2.776-7.13c-0.204-0.569-0.393-1.144-0.53-1.734    c-0.092-0.283-0.065-0.619-0.26-0.856c-0.431-0.601-1.441-0.126-1.229,0.612c0.258,1.54,0.836,2.999,1.331,4.474    c0.739,2.154,1.507,4.305,2.505,6.355c1.318,2.606,2.859,5.098,4.42,7.563c0.989,1.425,2.491,3.076,3.121,3.949    c1.148,1.383,2.743,4.49,3.066,5.379c1.816,4.256,2.733,8.831,4.533,13.094c0.484,1.107,0.984,2.206,1.516,3.29    c0.175,0.359,0.342,0.722,0.544,1.066c0.123,0.275,0.419,0.488,0.727,0.422C398.337,119.963,398.607,119.445,398.428,119.06z" fill="#ffffff"/>
		<path d="M407.816,145.99c-0.28-0.563-0.56-1.127-0.829-1.696c-1.545-3.104-2.515-5.909-3.83-9.397    c-0.457-1.147-0.924-2.291-1.42-3.422c-0.151-0.352-0.311-0.701-0.473-1.048c-0.102-0.191-0.152-0.432-0.345-0.553    c-0.572-0.471-1.394,0.249-1.013,0.889c1.339,2.864,2.496,6.161,3.728,9.548c0.76,1.969,1.677,3.872,2.663,5.738    c0.192,0.365,0.398,0.722,0.612,1.074c0.161,0.348,0.614,0.508,0.947,0.303C408.466,147.015,408.073,146.479,407.816,145.99z" fill="#ffffff"/>
		<path d="M350.158,61.145c-0.104-0.429-0.18-0.864-0.262-1.298c-0.173-1.106-0.349-2.726-0.295-4.292    c0.05-0.556,0.045-0.476,0.166-1.179c0.043-0.154,0.02-0.323-0.06-0.461c-0.243-0.449-0.973-0.356-1.093,0.143    c-0.43,1.898-0.238,3.864,0.029,5.772c0.081,0.546,0.207,1.084,0.358,1.615c0.074,0.246,0.12,0.539,0.367,0.673    c0.322,0.198,0.771,0.011,0.867-0.353C350.299,61.555,350.199,61.35,350.158,61.145z" fill="#ffffff"/>
		<path d="M352.146,54.126c-0.023-0.772-0.027-1.543-0.043-2.315c-0.009-0.386-0.025-0.771-0.04-1.156    c0.001-0.167-0.068-0.331-0.186-0.449c-0.373-0.399-1.101-0.098-1.083,0.449c0.041,0.826,0.051,1.654,0.066,2.481    c-0.001-0.001-0.002-0.003-0.003-0.004c-0.351-0.376-1.038-0.093-1.021,0.423c-0.006,1.206,0,2.412,0.063,3.617    c0.021,0.348,0.055,0.694,0.1,1.04c0.005,0.173,0.051,0.349,0.181,0.472c0.262,0.275,0.748,0.208,0.935-0.121    c0.101-0.158,0.082-0.344,0.062-0.521c-0.033-0.439-0.076-0.876-0.091-1.316c-0.021-0.501-0.034-1.003-0.043-1.505    c0.145,0.198,0.42,0.287,0.659,0.224C352.296,55.28,352.141,54.594,352.146,54.126z" fill="#ffffff"/>
		<path d="M347.793,59.425c-0.158-0.816-0.17-1.049-0.285-2.059c0.001-0.167-0.068-0.333-0.187-0.451    c-0.374-0.4-1.106-0.098-1.088,0.451c0.114,1.012,0.223,2.027,0.476,3.015c0.125,0.523,0.889,0.621,1.145,0.15    C348.05,60.179,347.829,59.791,347.793,59.425z" fill="#ffffff"/>
		<path d="M337.066,138.882c-0.103-3.49-0.228-6.98-0.295-10.471c0.009-0.937,0.013-1.874,0.066-2.809    c0.024-0.378,0.048-0.757,0.073-1.135c0.003-0.085-0.015-0.165-0.053-0.239c-0.1-0.285-0.444-0.442-0.733-0.36    c-0.263,0.069-0.46,0.328-0.456,0.599c-0.271,3.191-0.105,6.393-0.035,9.588c0.101,6.162,0.465,12.315,0.644,18.474    c0.091,4.283-0.034,8.571-0.403,12.839c-1.31,13.64-2.929,27.25-4.08,40.906c-0.157,1.875-0.325,3.75-0.429,5.63    c-0.025,0.437-0.048,0.874-0.07,1.311c-0.045,0.288,0.072,0.617,0.365,0.717c0.374,0.18,0.853-0.136,0.839-0.554    c0.042-0.507,0.09-1.013,0.137-1.519c0.158-1.618,0.298-3.238,0.463-4.855c0.796-7.965,1.579-15.932,2.375-23.896    c0.665-6.39,1.402-12.775,1.909-19.18C338.062,155.582,337.384,147.226,337.066,138.882z" fill="#ffffff"/>
		<path d="M354.58,175.792c-0.249-0.451-0.989-0.366-1.112,0.145c-1.189,4.672-2.206,9.385-3.331,14.072    c-1.952,8.144-3.736,16.331-5.094,24.597c-0.136,0.817-0.273,1.635-0.407,2.453c-0.044,0.394-0.263,0.895,0.135,1.171    c0.317,0.274,0.866,0.088,0.964-0.319c0.106-0.645,0.214-1.289,0.323-1.934c1.29-7.682,2.83-15.319,4.613-22.901    c1.143-4.864,2.239-9.739,3.41-14.596c0.179-0.742,0.37-1.48,0.561-2.219C354.685,176.102,354.661,175.933,354.58,175.792z" fill="#ffffff"/>
		<path d="M269.594,290.541c-2.411,2.431-4.824,4.966-6.406,8.034c-1.286,2.61-2.001,5.467-2.633,8.296    c-0.041,0.296-0.174,0.594-0.142,0.892c0.027,0.447,0.594,0.71,0.967,0.475c0.419-0.277,0.379-0.881,0.552-1.312    c0.322-1.112,0.627-2.229,0.985-3.33c0.418-1.343,0.927-2.867,1.292-3.631c0.723-1.626,1.878-3.317,2.652-4.262    c0.857-1.069,1.774-2.089,2.706-3.094c0.341-0.429,0.925-0.842,1.178-1.293C271.065,290.625,270.13,289.993,269.594,290.541z" fill="#ffffff"/>
		<path d="M309.901,270.593c-0.029-0.469-0.622-0.744-1.013-0.498c-0.148,0.099-0.269,0.23-0.313,0.407    c0.003,0.008,0.04-0.098,0.063-0.146c-0.098,0.225-0.177,0.459-0.271,0.686c-0.35,0.822-0.445,1.077-1.212,2.684    c-2.443,5.015-5.156,9.111-8.641,13.042c-2.137,2.346-4.9,5.391-6.884,6.221c-0.312,0.075-0.678,0.111-0.844,0.428    c-0.33,0.524,0.214,1.246,0.814,1.058c2.551-0.549,5.892-4.416,7.719-6.321c4.269-4.644,7.776-10.022,10.107-15.893    c0.14-0.383,0.275-0.769,0.393-1.159C309.862,270.936,309.945,270.767,309.901,270.593z" fill="#ffffff"/>
		<path d="M333.818,412.719c-0.81-0.147-1.613-0.339-2.39-0.613c-1.392-0.539-2.838-1.112-4.361-0.886    c-1.568,0.146-3.039,0.784-4.603,0.957c-1.331,0.263-3.532-0.16-4.471-0.788c-0.346-0.229-0.632-0.636-1.079-0.634    c-0.689-0.024-1.075,0.898-0.568,1.372c1.629,1.443,3.977,2.073,6.126,1.892c1.929-0.154,3.808-0.88,5.058-0.924    c1.307-0.135,2.636,0.624,4.432,1.042c0.706,0.142,1.422,0.248,2.144,0.245c0.192-0.01,0.399,0.024,0.573-0.072    c0.293-0.099,0.486-0.417,0.484-0.72C335.029,412.587,334.227,412.864,333.818,412.719z" fill="#ffffff"/>
		<path d="M302.248,377.689c-0.266-0.082-0.528,0.014-0.791,0.06c-0.147,0.032-0.71,0.121-0.882,0.15    c-1.184,0.141-2.305,0.031-2.845-0.1c-1.6-0.399-3.032-1.302-4.663-1.598c-0.96-0.194-1.945-0.124-2.917-0.176    c-0.384-0.011-0.768-0.028-1.151-0.062c-0.181-0.012-0.376-0.054-0.542,0.041c-0.719,0.276-0.494,1.387,0.278,1.379    c1.16,0.141,3.144,0.18,3.609,0.29c1.734,0.37,2.663,1.113,4.572,1.838c1.405,0.475,2.952,0.558,4.396,0.212    c0.512-0.16,1.181-0.177,1.484-0.681C303.106,378.539,302.815,377.839,302.248,377.689z" fill="#ffffff"/>
		<path d="M301.839,360.1c-0.36-0.284-1.603-0.79-2.623-0.998c-1.133-0.214-2.288,0.023-3.4,0.257    c-1.148,0.243-2.323,0.658-3.202,1.452c-0.523,0.635,0.279,1.54,0.983,1.12c1.02-0.64,1.352-0.772,2.686-1.009    c1.444-0.27,2.467-0.312,4.211,0.289c0.295,0.072,0.583,0.279,0.894,0.216C302.018,361.385,302.292,360.526,301.839,360.1z" fill="#ffffff"/>
		<path d="M251.825,406.825c-0.115-0.211-0.33-0.32-0.524-0.445c-0.223-0.129-0.443-0.271-0.683-0.369    c-0.234-0.096-0.001-0.003,0.103,0.043c-0.648-0.306-1.32-0.567-2.043-0.607c-1.563-0.105-3.024,0.583-4.34,1.353    c-1.021,0.641-2.034,1.297-3.004,2.014c-0.346,0.246-0.669,0.523-1,0.788c-0.164,0.127-0.338,0.263-0.395,0.47    c-0.436,0.949,0.84,1.8,1.568,1.057c0.922-0.745,1.605-1.2,2.969-2.067c1.555-0.913,2.025-1.277,3.594-1.561    c0.124-0.011,0.307-0.026,0.408-0.02c0.152,0.001,0.303,0.009,0.455,0.024c0.078,0.014,0.179,0.033,0.259,0.052    c0.488,0.116,0.966,0.272,1.44,0.432c0.038,0.014,0.076,0.029,0.114,0.043c0.032,0.014,0.063,0.028,0.096,0.036    c0.005,0.002,0.009,0.004,0.014,0.005c-0.003-0.001-0.007-0.003-0.011-0.005c0.043,0.011,0.086,0.021,0.131,0.023    c0.113,0.025,0.227,0.02,0.34-0.015C251.844,407.945,252.105,407.291,251.825,406.825z" fill="#ffffff"/>
		<path d="M222.868,366.321c-1.093-2.064-2.627-3.838-3.921-5.771c-0.692-1.101-0.829-1.399-1.095-2.678    c-0.001-0.003-0.001-0.006-0.001-0.009c-0.008-0.076-0.023-0.222-0.021-0.304c0.002-0.058,0.003-0.09,0.003-0.107    c0.044-0.219,0.121-0.439,0.086-0.658c-0.075-0.77-1.216-0.845-1.412-0.096c-0.203,0.679-0.155,1.382,0.011,2.064    c0.387,1.978,1.715,3.563,2.87,5.152c0.738,0.991,1.445,2.005,2.13,3.032c0.232,0.298,0.362,0.69,0.648,0.936    c0.364,0.325,1.002,0.098,1.115-0.369C223.391,367.069,223.041,366.702,222.868,366.321z" fill="#ffffff"/>
		<path d="M256.389,318.267c-0.357-0.514-0.718-1.026-1.085-1.533c-1.451-1.96-2.97-3.872-4.56-5.721    c-6.194-7.082-13.476-13.719-18.199-21.037c-3.193-5.023-4.914-9.345-6.86-14.766c-2.004-6.093-3.628-12.326-6.152-18.236    c-0.21-0.496-0.421-0.991-0.632-1.486c-0.057-0.105-0.134-0.189-0.232-0.253c-0.636-0.523-1.654,0.11-1.413,0.946    c1.586,3.668,2.864,7.46,4.002,11.289c1.158,3.868,2.183,7.784,3.643,11.554c1.66,4.357,3.566,8.648,6.188,12.521    c5.568,8.154,13.267,14.503,19.73,21.901c1.402,1.596,2.738,3.248,4.083,4.892c0.405,0.505,0.322,0.394,0.714,0.911    c0.028,0.037,0.057,0.073,0.085,0.11c-0.018-0.015,0.081,0.136,0.162,0.181c0.218,0.193,0.58,0.157,0.782-0.047    C257.051,319.068,256.653,318.635,256.389,318.267z" fill="#ffffff"/>
		<path d="M291.356,178.537c-0.244-0.438-0.972-0.363-1.093,0.143c-1.254,4.767-2.061,9.629-2.82,14.495    c-1.134,7.21-1.701,14.492-2.086,21.776c0.009,3.614-0.133,7.23,0.112,10.839c0.113,2.276,0.195,4.556,0.505,6.816    c0.356,3.185,1.218,6.277,2.148,9.335c0.443,1.367,0.895,2.731,1.409,4.073c0.193,0.462,0.296,1.177,0.959,1.018    c0.434-0.138,0.524-0.581,0.329-0.957c-0.137-0.377-0.267-0.756-0.4-1.134c-0.44-1.321-0.886-2.642-1.266-3.982    c-0.725-2.376-1.621-6.146-1.811-7.957c-0.419-2.961-0.471-5.953-0.647-8.934c-0.145-3.015-0.02-6.038-0.049-9.056    c0.243-5.126,0.625-10.242,1.152-15.346c0.604-4.809,1.561-11.425,2.692-16.786c0.181-0.778,0.365-1.555,0.553-2.331    c0.125-0.517,0.249-1.034,0.373-1.551C291.459,178.842,291.437,178.676,291.356,178.537z" fill="#ffffff"/>
		<path d="M385.321,50.511c-1.138-1.64-3.096-1.985-4.962-2.008c-2.082-0.142-4.166-0.213-6.251-0.296    c-2.842-0.12-4.348-0.512-7.64-1.449c-1.063-0.349-1.88-0.47-2.64-0.868c-0.105-0.059-0.209-0.121-0.312-0.184    c-0.041-0.027-0.082-0.049-0.123-0.078c-0.004-0.002-0.008-0.003-0.011-0.005c-0.135-0.086-0.268-0.175-0.398-0.269    c-0.162-0.132-0.334-0.254-0.548-0.261c-0.353-1.795-0.75-3.625-1.003-5.602c-0.203-1.343-0.289-4.833,0.038-6.874    c0.03-0.357,0.108-0.721,0.02-1.075c-0.173-0.652-0.814-0.764-1.346-0.42c-1.376,0.98-2.586,2.171-3.821,3.319    c-1.79,1.683-3.466,3.52-4.812,5.58c-1.109,1.917-1.903,4.001-2.629,6.091c-1.348,0.132-2.625,0.632-3.891,1.094    c-1.987,0.69-3.842,1.685-5.637,2.77c-6.932,4.304-12.217,10.653-17.299,16.927c-3.89,4.837-7.729,8.502-13.187,10.978    c-8.193,3.408-18.494,5.363-27.865,5.498c-4.329,0.107-8.662,0.059-12.989-0.112c-1.426-0.057-2.851-0.128-4.276-0.181    c-0.635,0.014-1.321-0.158-1.925,0.082c-0.375,0.203-0.424,0.753-0.121,1.041c2.369,1.201,5.066,1.732,7.645,2.341    c3.274,0.716,6.557,1.397,9.879,1.858c7.368,0.976,14.94,1.586,22.281,0.28c-0.639,0.326-1.282,0.642-1.92,0.93    c-5.045,2.037-11.323,3.053-17.055,3.43c-5.955,0.397-11.98,0.593-17.803,2.004c-5.879,1.663-11.592,4.427-16.068,8.642    c-2.085,2.149-4.288,4.233-5.979,6.718c-0.414,0.73-2.341,3.656-0.612,3.711c0.297-0.033,0.526-0.277,0.707-0.497    c0.544-0.663,0.785-1.072,1.252-1.628c1.066-1.339,2.338-2.499,3.63-3.616c6.603-5.26,14.989-6.514,23.266-7.762    c2.021-0.292,3.816-0.538,5.797-0.731c-3.701,2.4-6.319,6.313-8.916,9.813c-3.808,5.461-8.648,10.863-14.191,14.437    c-5.729,3.377-11.13,5.563-17.647,7.109c-4.197,0.968-8.137,1.187-12.697,0.964c-0.276,0.034-0.495,0.29-0.524,0.561    c-0.06,1.327,3.461,2.11,4.502,2.485c2.401,0.691,4.871,1.092,7.338,1.462c9.325,1.167,18.916,0.192,27.745-3.065    c3.403-1.214,6.739-2.653,9.913-4.386c-0.436,0.645-0.876,1.288-1.335,1.917c-3.717,4.92-9.119,9.477-15.252,12.005    c-1.724,0.707-5.23,1.942-7.668,2.343c-2.651,0.439-5.565,0.566-8.63,0.543c-4.89-0.128-9.547-0.552-14.028-1.251    c-2.847-0.425-5.71-0.852-8.473-1.678c-0.436-0.089-0.841-0.389-1.287-0.368c-0.389,0.023-0.666,0.511-0.488,0.859    c0.272,0.486,0.986,0.677,1.419,1.017c3.244,1.753,6.608,3.334,10.089,4.554c4.77,1.522,9.702,2.53,14.67,3.136    c11.698,1.667,23.128-1.642,34.211-5.03c1.105-0.309,1.872-0.551,2.72-0.522c0.059,0.018,0.136,0.041,0.175,0.061    c-0.324-0.124,0.313,0.144,0.379,0.322c0.634,1.243-1.84,4.962-4.11,6.43c-2.401,1.692-4.378,2.535-7.031,3.468    c-3.805,1.33-7.121,1.972-10.918,2.163c-1.193,0.06-2.386,0.116-3.581,0.115c-0.614-0.036-0.9,0.871-0.34,1.167    c0.116,0.026,0.228,0.05,0.342,0.074c0,0-0.001,0-0.002,0h0.003c3.057,0.663,5.531,0.96,9.147,0.692    c6.833-0.545,13.395-2.788,20.163-3.784c1.734-0.257,4.713-0.552,7.089-0.27c0.103,0.014,0.361,0.05,0.454,0.07    c0.368,0.063,0.733,0.139,1.099,0.21c-0.382,0.444-0.916,1.005-1.352,1.326c-3.62,2.723-9.335,4.59-14.601,5.439    c-1.092,0.19-1.417,0.207-2.611,0.311c-0.536,0.117-1.469-0.064-1.566,0.678c-0.104,0.58,0.567,0.831,1.05,0.794    c0.656,0.035,1.311,0.068,1.966,0.11c1.955,0.132,3.915,0.104,5.872,0.06c1.313-0.074,2.848-0.276,4.187-0.553    c-0.879,0.744-1.766,1.478-2.669,2.193c-3.57,2.656-9.762,5.482-14.188,5.865c-1.347,0.092-2.701,0.244-4.052,0.159    c-1.832-0.108-4.662-0.676-7.049-1.102c-5.824-1.113-11.735-1.657-17.634-2.19c-6.187-0.592-12.379-1.251-18.597-1.387    c-8.342,0.096-16.261,3.355-23.511,7.247c-4.913,2.532-9.721,5.271-14.349,8.294c-3.836,2.433-7.318,5.347-10.553,8.524    c-0.054,0.003-0.108,0.006-0.164,0.024c-3.226,0.417-6.386,1.204-9.425,2.366c-2.919,1.117-5.82,2.365-8.462,4.049    c-6.361,4.18-11.489,10.114-16.518,15.767c-8.781,10.284-17.1,20.965-26.233,30.946c-7.98,8.966-17.053,17.073-26.44,23.632    c-5.761,4.109-11.81,7.864-18.362,10.579c-0.088,0.037-0.229,0.096-0.288,0.12c-0.864,0.403-1.138,0.318-1.911,0.834    c-0.812,1.361,1.622,1.566,2.486,1.659c4.414,0.004,8.472-2.136,12.467-3.781c2.274-1.039,4.53-2.12,6.762-3.248    c-0.138,0.095-0.278,0.185-0.415,0.28c-6.024,4.002-11.898,8.294-16.874,13.576c-5.044,5.542-9.215,12.07-11.01,19.41    c-0.716,2.858-1.241,5.779-1.242,8.733c-0.013,0.717-0.013,1.435,0.015,2.152c0.023,0.389-0.014,0.84,0.285,1.128    c0.297,0.318,0.886,0.165,0.987-0.261c0.681-3.381,1.317-6.072,3.253-8.804c5.418-7.121,14.726-11.784,23.48-15.594    c5.725-2.501,11.297-5.365,16.669-8.558c-4.605,3.765-9.342,7.179-14.404,10.753c-1.571,1.053-3.145,2.103-4.763,3.081    c-0.521,0.316-1.051,0.617-1.584,0.913c-0.271,0.146-0.461,0.488-0.316,0.783c0.313,0.674,1.142,0.236,1.674,0.111    c0.738-0.224,1.468-0.475,2.197-0.729c3.071-1.14,6.119-2.344,9.239-3.348c6.565-2.223,13.476-3.553,19.663-6.777    c6.039-2.974,10.666-7.991,14.777-13.206c0.105-0.13,0.213-0.267,0.321-0.408c-1.9,4.066-4.701,7.721-8.035,11.023    c-0.845,0.913-2.749,2.487-3.247,2.876c-0.529,0.556-2.368,1.187-1.623,2.135c0.756,0.555,1.746-0.269,2.491-0.525    c1.147-0.554,2.278-1.147,3.356-1.826c5.538-3.659,10.993-7.621,15.529-12.496c1.38-1.678,2.773-3.35,4.117-5.059    c-0.123,0.223-0.248,0.447-0.376,0.672c-0.417,0.721-0.864,1.426-1.379,2.082c0.294-0.3-0.315,0.304-0.293,0.47    c-0.037,0.145-0.03,0.3,0.04,0.435c0.349,0.772,1.176,0.217,1.616-0.167c0.576-0.417,1.728-1.384,1.721-1.39    c2.334-1.899,4.534-3.985,6.316-6.421c0.035-0.046,0.067-0.094,0.101-0.141c0.287,1.187,0.602,2.367,0.975,3.533    c0.712,2.301,1.558,4.557,2.52,6.763c0.182,0.204,9.9,18.149,11.542,21.446c1.632,3.259,2.661,5.918,3.936,9.535    c1.053,3.004,2.07,6.03,2.769,9.14c1.065,5.221,1.721,10.518,2.547,15.781c0.655,4.854,1.834,9.617,3.418,14.25    c1.666,4.885,3.665,9.649,5.51,14.467c0.885,2.192,1.464,4.482,2.059,6.765c-0.044,0.117-0.056,0.253-0.014,0.402    c0.737,2.729,0.761,5.779,0.375,8.981c-0.246,2.308-0.939,5.514-1.257,8.403c-0.116,1.999,0.003,4.023,0.443,5.979    c0.984,4.373,2.932,8.433,5.118,12.321c1.507,2.792,2.842,5.674,4.477,8.396c3.461,5.988,6.252,11.367,7.979,17.85    c0.979,3.371,1.794,6.793,2.315,10.266c0.132,0.783,0.253,1.569,0.365,2.355c-0.318,1.297-0.607,2.603-0.704,3.937    c-0.086,2.343,0.146,4.691,0.003,7.034c-0.058,1.176-0.282,2.336-0.357,3.511c-0.039,0.914,0.074,1.836,0.283,2.725    c1.591,5.902,5.823,8.117,11.587,8.695c1.809,0.191,3.635-0.078,5.379-0.562c1.041-0.317,2.179-0.635,2.963-1.429    c0.65-0.736,0.594-1.783,0.617-2.705c-0.015-1.135-0.078-2.268-0.133-3.402c-0.157-4.248-0.776-8.596-2.924-12.334    c-0.49-0.987-1.045-1.927-1.657-2.829c0.173-0.395-0.193-0.777-0.33-1.304c-0.287-0.816-0.521-1.65-0.728-2.489    c-0.504-2.022-0.962-4.057-1.551-6.057c-0.976-3.052-2.028-6.082-3.091-9.105c-1.524-4.37-2.832-8.822-4.583-13.109    c0.089-0.124,0.145-0.278,0.141-0.462c0.033-0.714,0.276-2.029,0.514-4.145c0.175-1.444,0.35-3.017,0.47-3.874    c0.29-1.887,0.638-3.765,0.86-5.662c0.433-4.013,0.511-8.145-0.514-12.077c-0.614-2.48-1.745-4.791-3.101-6.946    c-0.039-0.085-0.079-0.169-0.117-0.253c-1.915-4.164-3.49-7.414-4.857-11.663c-1.077-3.504-1.772-7.119-2.295-10.745    c-0.307-2.17-0.591-6.428-0.743-9.348c-0.224-5.209-0.577-10.422-0.363-15.637c0.076-3.116,0.391-6.218,0.619-9.325    c0.209-3.806,0.485-7.61,0.612-11.419c1.246-2.781,2.868-5.03,4.623-7.02c0.376-0.416,0.756-0.829,1.144-1.234    c0.219-0.236,0.51-0.463,0.53-0.804c0.9,1.043,1.857,2.035,2.874,2.965c1.281,1.136,2.664,2.15,4.022,3.189    c3.055,2.355,6.27,4.512,9.745,6.2c2.641,1.374,5.453,2.363,8.311,3.176c3.4,1.025,6.898,1.648,10.392,2.259    c-2.077,4.883-6.652,10.359-10.388,13.465c-2.122,1.668-4.465,3.021-6.854,4.267c-1.303,0.699-2.714,1.202-3.951,2.02    c-2.546,1.732-4.558,4.171-5.846,6.964c-0.99,2.102-1.697,4.367-1.865,6.692c-0.057,3.234,1.158,6.312,2.757,9.071    c0.999,1.78,2.07,3.398,2.425,4.788c0.255,1.059,0.155,0.995,0.333,2.214c0.445,1.901,1.523,3.601,2.665,5.16    c2.879,3.858,5.876,7.65,8.375,11.772c0.832,1.42,1.489,2.933,2.187,4.421c1.359,2.826,2.414,5.854,2.924,9.471    c0.218,1.244,0.341,3.765,0.354,5.755c0.035,1.895-0.074,3.818,0.409,5.669c0.35,1.659,1.109,3.209,1.361,4.889    c0.019,0.149,0.048,0.378,0.063,0.531c-0.103,0.136-0.201,0.241-0.484,0.53c-0.082,0.088-0.419,0.366-0.53,0.461    c-0.075,0.053-0.15,0.106-0.225,0.16c0.018-0.004,0.04-0.012,0.062-0.021c-1.238,0.684-1.022,0.582-1.908,0.888    c-0.619,0.194-1.269,0.254-1.892,0.432c-1.05,0.296-2.155,0.81-2.688,1.815c-0.432,0.849-0.217,1.802-0.05,2.707    c-0.369,1.439-0.974,2.492-2.029,3.97c-0.777,1.016-1.21,1.529-1.961,2.9c-0.421,0.818-0.822,1.67-1.018,2.574    c-0.125,0.711-0.045,1.436,0.002,2.151c0.258,2.513,0.936,6.431,1.749,9.61c0.366,1.098,0.78,2.193,1.347,3.204    c0.689,1.045,1.455,2.05,2.349,2.928c0.798,0.763,1.697,1.414,2.602,2.044c1.963,1.367,4.219,2.229,6.566,2.66    c1.798,0.351,4.04,0.567,5.612,0.553c3.218-0.121,4.13-1.076,5.312-3.973c0.912-2.322,1.653-4.725,2.135-7.176    c0.088,0.926,0.214,1.849,0.366,2.763c0.261,1.531,0.285,2.742,0.722,4.663c0.662,2.312,2.008,4.475,4.032,5.823    c0.764,0.525,1.597,0.951,2.479,1.24c1.05,0.318,2.145,0.463,3.227,0.625c1.716,0.269,3.121,0.257,5.352,0.001    c1.456-0.177,2.926-0.399,4.28-0.99c3.836-1.592,4.796-4.389,5.944-7.527c0.505-1.365,0.968-2.744,1.459-4.113    c0.129-0.391,0.248-0.786,0.367-1.18c0.058-0.142,0.092-0.297,0.084-0.448c0.446-0.613,0.862-1.248,1.244-1.9    c0.489-0.85,0.913-1.738,1.271-2.652c0.006,0.002,0.012,0.004,0.018,0.006c0.867,0.291,1.786,0.438,2.701,0.376    c1.476-0.121,1.652-0.26,3.063-0.304c0.384-0.049,0.806,0.095,1.188,0.05c0.044,0.056,0.087,0.113,0.131,0.169    c0.904,1.15,2.031,2.101,3.151,3.033c3.428,2.92,9.016,2.319,12.599-0.026c0.848-0.565,1.473-1.38,1.926-2.284    c0.418-0.78,0.875-1.538,1.373-2.269c0.519-0.786,1.028-1.37,1.995-2.335c0.522-0.501,1.068-0.977,1.632-1.431    c1.606-1.205,3.289-2.306,4.873-3.541c2.661-2.007,4.785-4.603,7.157-6.923c1.767-1.787,2.858-2.925,4.732-4.021    c1.541-0.973,3.2-1.74,4.756-2.684c2.156-1.403,3.72-3.532,4.968-5.747c1.123-2.011,1.875-4.266,1.898-6.584    c-0.006-0.995-0.164-1.983-0.268-2.971c-0.277-1.836-0.228-3.689-0.064-5.533c0.513-5.402,0.653-10.83,0.745-16.254    c0.103-4.139,0.474-7.75,1.079-11.298c0.683-3.596,1.6-7.145,2.437-10.708c0.918-3.777,1.875-7.544,2.857-11.305    c0.689-2.805,1.269-5.636,1.871-8.46c0.707-3.172,1.344-6.36,1.949-9.553c0.581-2.967,1.144-5.94,1.496-8.944    c0.252-2.179,0.358-3.692,0.661-5.445c0.431-2.199,0.988-4.372,1.485-6.557c0.014-0.035,0.029-0.069,0.04-0.107    c0.99-3.075,2.415-5.696,4.021-8.938c1.482-2.879,3.15-5.663,4.49-8.614c1.853-3.993,3.239-8.178,4.775-12.298    c1.069-3.083,2.415-6.067,3.383-9.185c0.436-1.439,0.762-2.915,0.839-4.421c0.118-2.01-0.046-4.021-0.07-6.032    c-0.038-3.216-0.312-6.43-0.891-9.594c-0.85-4.027-1.921-8.006-2.9-12.003c-1.056-4.667-2.351-9.272-3.807-13.829    c-0.666-2.273-1.134-4.609-2.019-6.812c-0.196-0.524-0.351-1.063-0.426-1.618c0.004-0.038-0.019-0.287-0.083-0.387    c-0.07-0.21-0.248-0.384-0.455-0.455c-0.379-0.182-0.865-0.008-1.075,0.352c-0.22,0.36-0.055,0.782-0.021,1.17    c0.128,0.83,0.462,1.607,0.733,2.396c0.779,2.36,1.193,4.824,1.987,7.18c1.497,4.461,2.62,9.03,3.735,13.597    c0.926,3.74,1.977,7.457,2.722,11.238c0.449,2.438,0.725,5.678,0.757,8.792c0.085,3.566,0.433,6.563-0.599,9.584    c-0.585,1.932-1.402,3.783-2.168,5.648c-0.751,1.816-1.444,3.655-2.14,5.493c-1.114,2.985-2.588,7.102-3.514,9.221    c-1.132,2.67-2.495,5.233-3.866,7.786c-0.654,1.259-1.289,2.529-1.904,3.807c0.017-0.119,0.036-0.241,0.057-0.369    c0.25-1.844,0.521-3.696,0.501-5.561c0.048-1.797-0.352-3.585-1.059-5.233c-0.648-1.664-1.959-3.512-3.969-3.278    c-1.657,0.252-2.853,1.621-3.938,2.789c-0.981,1.077-1.917,2.194-2.822,3.335c-2.633,3.306-5.184,6.681-7.37,10.304    c-3.453,5.328-6.256,11.098-8.018,17.207c-0.446,1.678-0.97,3.347-1.133,5.083c-0.01,0.387-0.186,0.798-0.065,1.17    c0.229,0.563,1.099,0.406,1.1-0.222c0.158-1.547,0.404-2.748,0.904-4.461c0.416-1.521,0.867-3.034,1.435-4.506    c1.506-4.102,3.569-8.246,6.14-12.253c1.88-3.04,3.852-6.023,6.073-8.828c1.428-1.87,3.276-4.276,5.231-6.371    c1.16-1.326,2.45-2.066,3.018-1.901c1.497,0.212,2.481,2.914,2.928,5.451c0.121,1.242,0.065,2.498-0.024,3.74    c-0.154,1.684-0.391,3.358-0.564,5.04c0,0.029-0.003,0.059-0.005,0.088c-0.124,0.106-0.219,0.246-0.261,0.404    c-0.508,1.986-0.9,4-1.453,5.975c-0.576,2.163-1.244,4.305-1.674,6.504c-0.454,2.516-0.53,4.135-0.885,6.844    c-0.101,0.718-0.209,1.434-0.33,2.149c-0.248,1.383-0.493,2.767-0.764,4.145c-1.184,6.087-2.452,12.158-3.807,18.209    c-1.319,5.233-2.674,10.457-3.848,15.725c-0.61,2.689-1.273,5.371-1.706,8.095c-0.672,4.303-0.941,8.659-0.928,13.012    c-0.026,4.837-0.164,9.676-0.627,14.493c-0.139,1.707-0.209,3.42,0.03,5.122c0.109,1.123,0.286,2.244,0.268,3.375    c-0.091,1.79-0.618,3.508-1.583,5.266c-1.124,2.118-2.681,3.97-4.059,4.932c-1.292,0.883-2.733,1.513-4.072,2.32    c-0.989,0.584-1.984,1.165-2.886,1.879c-1.007,0.777-1.905,1.68-2.805,2.574c-2.426,2.342-4.592,4.961-7.206,7.1    c-1.68,1.401-5.172,3.525-7.247,5.707c-1.055,1.075-1.934,2.307-2.692,3.606c-0.275,0.469-0.524,0.953-0.787,1.43    c-0.087,0.159-0.18,0.315-0.279,0.467c-0.03,0.04-0.059,0.081-0.089,0.121c-0.105,0.133-0.221,0.257-0.346,0.371    c-0.083,0.075-0.169,0.146-0.257,0.216c-0.264,0.198-0.54,0.381-0.834,0.532c-0.186,0.098-0.374,0.19-0.564,0.278    c-0.068,0.033-0.137,0.061-0.206,0.091c-0.705,0.294-1.439,0.514-2.186,0.671c-2.321,0.481-4.733,0.411-6.757-1.151    c-0.195-0.165-0.614-0.516-0.707-0.597c-0.549-0.474-1.081-0.968-1.592-1.482c-0.368-0.379-0.757-0.738-1.117-1.126    c0.028-0.201,0.022-0.415,0.012-0.611c-0.007-0.541-0.022-1.083,0.02-1.624c0.101-1.21,0.179-1.588,0.579-3.493    c0.47-2.038,1.467-4.945,2.009-6.114c1.076-2.252,2.496-4.615,3.726-5.97c1.49-1.559,1.94-1.888,3.991-2.426    c0.244-0.096,1.564-0.047,2.497-0.215c0.313-0.073,0.688-0.024,0.942-0.248c0.073-0.05,0.131-0.11,0.178-0.174    c0.001,0,0.002,0,0.003,0c0.249,0.009,0.46-0.123,0.653-0.264c0.374-0.25,0.746-0.502,1.115-0.759    c1.361-0.976,2.739-1.932,4.01-3.026c1.216-1.081,2.374-2.321,3.101-3.789c0.752-1.601,0.877-3.381,1.272-5.083    c0.411-1.838,0.808-2.615,1.734-4.309c0.977-1.767,2.091-3.476,2.765-5.391c0.82-2.484,1.126-5.111,1.204-7.717    c0.091-3.755-0.919-8.425-1.251-11.289c-0.656-5.476-1.107-10.977-1.42-16.483c-0.296-4.613-0.1-10.277,0.446-14.044    c0.202-1.525,0.776-4.988,1.279-7.295c0.065-0.549,0.423-1.127,0.141-1.654c-0.349-0.607-1.352-0.519-1.531,0.2    c-0.25,1.06-0.487,2.124-0.706,3.192c-0.005-0.004-0.007-0.006-0.013-0.01c-0.335-0.267-0.648-0.559-0.951-0.862    c-0.137-0.238-0.372-0.418-0.532-0.642c-0.54-0.649-1.067-1.31-1.586-1.976c-0.605-0.777-1.115-1.433-1.6-2.063    c-0.175-0.302-0.345-0.607-0.516-0.911c-0.089-0.153-0.238-0.268-0.409-0.314c-0.006-0.002-0.012-0.002-0.018-0.004    c-0.487-0.639-0.997-1.314-1.602-2.12c-1.193-1.551-2.39-3.121-3.892-4.391c-2.168-1.89-4.906-2.875-7.594-3.785    c-0.023-0.265-0.047-0.533-0.069-0.809c-0.079-0.863-0.145-1.727-0.208-2.591c2.709-0.823,4.911-0.759,7.985-1.11    c3.207-0.282,6.373-0.923,9.451-1.862c2.812-0.826,5.427-2.221,7.786-3.949c2.295-1.786,4.249-3.97,6.017-6.269    c2.812-3.627,5.359-7.494,7.229-11.696c0.897-2.06,1.648-4.182,2.293-6.335c0.143-0.496,0.278-0.995,0.398-1.496    c0.03-0.184,0.119-0.367,0.08-0.553c-0.021-0.308-0.315-0.545-0.618-0.546c-0.17-0.004-0.321,0.073-0.445,0.184    c-0.161,0.154-0.185,0.384-0.256,0.585c-0.201,0.634-0.431,1.258-0.661,1.881c-1.013,2.763-1.687,4.582-2.94,7.047    c-2.072,4.053-5.022,8.162-7.474,11.149c-1.43,1.741-3.655,3.916-4.89,4.779c-2.405,1.619-4.264,2.637-6.671,3.399    c-3.186,1.014-6.847,1.735-9.492,1.969c-1.717,0.186-3.438,0.332-5.15,0.556c-0.91,0.142-1.873,0.273-2.759,0.565    c-0.215-3.207-0.402-6.416-0.825-9.603c-0.421-3.932-1.375-7.787-2.817-11.469c-0.87-2.406-1.793-4.844-3.507-6.791    c-1.57-1.997-3.417-3.804-5.674-5.008c-1.841-1.048-3.711-2.075-5.751-2.684c-1.254-0.385-2.555-0.589-3.847-0.799    c-0.358-0.054-0.716-0.102-1.075-0.148c-0.237-0.021-0.488-0.111-0.71,0.007c-0.621,0.246-0.564,1.182,0.086,1.353    c1.871,0.269,3.757,0.56,5.551,1.171c1.402,0.458,2.454,1.076,4.022,1.973c1.211,0.705,2.435,1.444,3.061,1.99    c1.59,1.357,2.792,2.887,3.704,4.117c1.316,1.932,1.587,3.115,2.438,5.259c1.452,3.656,2.435,7.483,2.873,11.394    c0.519,3.694,0.775,9.973,1.228,14.54c0.481,4.681,1.04,9.395,2.356,13.924c1.336,4.95,3.25,9.85,6.546,13.841    c1.909,2.304,3.47,4.441,3.606,6.999c0.066,1.743-0.291,3.466-0.429,5.198c-0.074,0.931-0.472,4.235-0.452,4.147    c-0.042,0.306-0.06,0.616-0.097,0.923c-0.212,0.793-0.11,0.903-0.792,1.974c-1.623,2.276-4.67,5.196-6.619,8.065    c-3.158,4.431-4.31,9.864-5.875,14.984c-0.846,2.88-1.878,5.698-2.853,8.536c-1.035,3.165-1.978,6.364-2.783,9.596    c-0.756,3.161-1.054,5.648-1.383,8.472c-0.184,1.724-0.247,3.174-0.471,4.343c-0.315,1.755-0.626,2.46-1.409,3.332    c-1.225,1.601-2.951,2.808-3.94,4.584c-0.447,0.899-0.459,1.924-0.605,2.903c0.004-0.035-0.14,0.913-0.194,1.137    c-0.162,0.8-0.376,1.59-0.651,2.359c-0.885,2.539-2.608,5.313-4.82,7.36c-1.218,1.123-3.198,2.287-4.804,2.811    c-2.67,0.842-5.244-0.184-8.122-1.973c-1.909-1.25-3.394-2.792-4.69-5.15c-0.946-1.618-1.369-3.717-1.95-6.005    c-0.402-1.917-0.891-3.176-0.786-4.749c0.023-0.113,0.02-0.121,0.011-0.09c0.007-0.047,0.015-0.094,0.026-0.141    c0.009-0.041,0.02-0.082,0.032-0.122c0.1-0.199,0.224-0.385,0.358-0.563c0.504-0.612,2.559-2.642,3.648-3.742    c1.735-1.794,3.712-4.288,5.185-4.575c0.283-0.016,0.799,0.27,2.27,0.82c3.155,0.823,3.708-0.58,4.243-3.363    c0.291-1.521,0.459-3.062,0.731-4.586c0.214-1.147,0.502-2.286,0.942-3.367c0.372-0.845,0.886-1.613,1.403-2.374    c0.787-1.151,1.595-2.288,2.413-3.416c1.745-2.315,3.371-4.715,5.061-7.069c1.095-1.45,2.118-2.956,2.882-4.61    c0.873-2.088,1.475-4.281,2.021-6.474c0.513-2.301,1.064-4.604,1.29-6.956c0.104-1.34,0.058-2.687-0.033-4.027    c-0.085-1.707-0.501-2.942-1.013-5.013c-0.347-1.722-0.51-3.064-0.642-4.289c-0.131-1.672,0.033-3.326,0.208-4.374    c0.212-1.317,0.625-2.59,1.059-3.848c0.157-0.468,0.318-0.935,0.457-1.409c0.062-0.264,0.21-0.518,0.149-0.792    c-0.027-0.417-0.432-0.748-0.846-0.746c-0.376-0.005-0.733,0.269-0.83,0.632c-0.082,0.283-0.173,0.562-0.266,0.841    c-0.46-2.708-0.919-5.431-1.868-8.019c-0.832-2.272-1.584-4.596-2.759-6.721c-2.186-3.584-5.027-6.7-7.719-9.902    c-2.407-2.794-4.32-5.55-6.477-9.005c-1.239-2.077-1.933-3.545-2.635-5.591c-0.204-0.592-0.399-1.187-0.597-1.782    c0.037-0.096,0.057-0.198,0.058-0.302c0.008-0.218-0.099-0.405-0.197-0.591c-0.17-0.339-0.344-0.675-0.512-1.015    c-0.542-1.158-1.069-2.419-1.315-2.998c-0.82-1.991-1.464-4.049-2.28-6.043c-0.9-2.299-1.887-4.573-2.501-6.971    c-0.54-2.326-0.594-4.979-0.561-7.887c-0.014-4.415,0.361-8.814,0.667-13.214c0.175-3.161,0.006-6.326-0.3-9.473    c-0.267-3.407-0.686-6.798-1.217-10.174c-0.413-2.606-0.812-5.215-1.176-7.828c-0.267-1.993-0.523-3.736-0.554-6.143    c0.049-3.227,0.251-5.579,1.114-8.617c0.168-0.588,0.342-1.175,0.539-1.755c0.087-0.33,0.322-0.668,0.124-0.997    c-0.239-0.429-0.956-0.358-1.074,0.141c-1.353,3.69-2.16,7.585-2.19,11.522c-0.024,2.431,0.314,4.844,0.624,7.251    c0.445,3.588,1.125,7.695,1.507,10.59c0.637,5.666,1.317,11.38,0.844,17.085c-0.303,3.864-0.552,7.734-0.572,11.611    c-0.034,2.8-0.041,5.634,0.557,8.383c0.547,2.221,1.406,4.344,2.229,6.474c0.725,1.779,1.361,3.591,2.027,5.392    c0.538,1.401,1.171,2.765,1.794,4.13c0.205,0.436,0.434,0.859,0.662,1.283c0.073,0.179,0.188,0.352,0.332,0.484    c0.054,0.174,0.108,0.349,0.162,0.524c-0.719,0.079-1.44,0.134-2.161,0.18c-2.826,0.261-5.664,0.061-8.494-0.027    c-3.763-0.147-7.579-0.402-10.676-0.981c-2.821-0.524-5.662-0.986-8.428-1.759c-3.017-0.839-5.879-1.684-8.201-2.803    c-3.762-1.725-7.277-3.929-10.566-6.435c-2.1-1.584-3.382-2.427-5.192-4.176c-4.293-4.071-6.728-8.948-10.458-13.863    c-1.632-2.139-2.541-3.349-4.398-5.742c-1.121-1.399-2.348-2.708-3.557-4.031c-0.443-0.452-1.202,0-1.076,0.568    c-1.478-3.01-2.955-6.02-4.67-8.903c-1.528-2.512-3.093-5.005-4.736-7.444c-1.273-1.861-2.764-3.569-3.943-5.494    c-0.913-1.568-1.761-3.031-2.506-4.491c0.059-0.014,0.116-0.035,0.17-0.068c0.153-0.084,0.247-0.232,0.302-0.393    c0.052-0.513-0.004-0.153-0.044-0.676c-0.002-0.014-0.004-0.029-0.006-0.043c-0.037-0.288-0.073-0.575-0.11-0.863    c-0.033-0.281-0.065-0.561-0.098-0.842c-0.237-2.171-0.487-4.352-0.479-6.538c-0.029-2.373,0.131-4.746,0.425-7.101    c0.334-3.413,1.286-7.267,2.587-11.003c2.549-7.466,6.069-14.19,10.514-21.068c2.9-4.433,6.13-8.266,10.446-12.392    c1.564-1.516,3.122-3.041,4.749-4.491c0.537-0.534-0.234-1.461-0.875-0.875c-4.021,3.636-7.994,7.353-11.472,11.521    c-3.472,4.273-6.405,8.969-9.012,13.812c-3.233,5.996-5.896,12.334-7.544,18.955c-0.943,4.289-1.379,8.695-1.302,13.086    c0.075,2.225,0.343,4.443,0.66,6.646c-0.345-0.823-0.652-1.661-0.912-2.532c-0.645-2.112-1.277-4.234-1.645-6.415    c-0.324-1.796-0.579-3.604-0.85-5.408c-0.085-0.562-0.175-1.123-0.272-1.683c-0.087-0.325-0.039-0.703-0.257-0.974    c-0.203-0.301-0.651-0.375-0.96-0.192c-0.285,0.162-0.432,0.525-0.342,0.84c0.506,2.997,0.811,6.026,1.387,9.012    c0.422,2.112,1.042,4.181,1.691,6.234c1.087,3.216,2.794,6.184,4.534,9.085c1.087,1.713,2.419,3.254,3.573,4.921    c2.135,3.136,4.165,6.348,6.054,9.639c1.746,3.155,3.258,6.432,4.898,9.642c1.48,2.834,2.815,5.738,4.121,8.656    c1.049,2.33,1.739,3.83,2.624,6.34c0.677,1.88,1.468,5.352,1.602,6.571c0.229,1.971,0.271,3.953,0.224,5.935    c-0.026,0.107-0.033,0.216-0.009,0.328c-0.04,1.438-0.123,2.875-0.213,4.307c-0.201,3.533-0.356,7.068-0.681,10.592    c-0.292,3.559-0.424,7.132-0.391,10.703c0.096,3.456,0.26,6.912,0.421,10.366c0.169,2.99,0.335,5.983,0.677,8.959    c0.42,3.384,1.075,6.737,1.916,10.042c1.023,3.645,2.461,7.155,4.075,10.574c1.072,2.36,2.238,4.674,3.42,6.981    c0.051,0.091,0.127,0.162,0.214,0.216c1.652,4.246,1.862,8.438,1.366,13.732c-0.197,1.852-0.51,3.488-0.876,5.712    c-0.272,1.754-0.453,3.52-0.686,5.28c-0.105,0.79-0.11,0.864-0.168,1.273c-0.49-1.039-0.995-2.071-1.475-3.114    c-1.22-2.816-2.426-5.637-3.712-8.423c-0.339-0.777-0.375-0.856-0.738-1.751c-0.044-0.16-0.15-0.295-0.292-0.379    c-0.462-0.286-1.097,0.185-0.932,0.717c0.674,1.775,1.489,3.491,2.224,5.24c0.216,0.471,1.601,3.919,2.291,5.538    c1.4,3.131,2.503,5.289,3.531,8.464c0.935,2.665,1.811,5.349,2.698,8.03c0.711,2.105,1.488,4.186,2.189,6.294    c0.617,1.852,1.324,3.674,1.854,5.554c0.521,1.802,0.919,3.636,1.428,5.441c-0.01-0.01-0.02-0.02-0.03-0.029    c-0.309-0.273-0.807-0.217-1.093,0.065c-0.547,0.575-0.056,1.154,0.329,1.64c0.723,0.964,1.176,1.413,1.609,2.063    c1.217,1.746,2.512,4.34,3.031,5.665c0.543,1.607,0.868,2.966,1.079,4.333c-0.361,0.054-0.095,0.035-0.593,0.06    c-2.535-0.047-2.522-0.15-4.461-0.422c-1.438-0.234-2.846-0.627-4.215-1.122c-1.398-0.529-2.185-0.839-3.664-1.777    c-0.75-0.491-1.472-1.023-2.19-1.559c-0.253-0.187-0.928-0.695-1.472-1.32c-0.023-0.915-0.046-1.831-0.031-2.746    c0.048-1.172,0.11-1.301,0.351-2.564c0.162-0.766,0.355-1.524,0.547-2.283c0.082-0.375,0.265-0.783,0.038-1.141    c-0.152-0.281-0.444-0.408-0.733-0.4c-0.03-0.24-0.058-0.48-0.09-0.719c-0.358-2.926-1.477-7.841-2.531-11.371    c-1.786-6.433-4.962-12.359-8.264-18.123c-1.375-2.354-2.507-4.836-3.809-7.23c-2.198-3.976-3.825-7.2-4.921-11.36    c-0.622-2.368-0.769-3.937-0.642-6.548c0.315-3.051,1.197-7.067,1.316-10.763c0.015-0.619,0.01-1.24-0.015-1.859    c0.129,0.004,0.259-0.026,0.374-0.091c0.265-0.151,0.402-0.488,0.318-0.781c-0.264-0.835-0.49-1.68-0.732-2.522    c-0.604-2.094-1.044-4.232-1.694-6.312c-2.655-7.648-6.172-15.006-8.159-22.881c-0.985-3.605-1.465-7.319-2.025-11.007    c-0.674-4.327-1.21-8.681-2.08-12.973c-0.69-3.145-1.703-6.207-2.767-9.243c-1.54-4.527-3.442-8.924-5.744-13.116    c-3.179-5.894-6.873-11.517-9.704-17.594c-1.252-2.781-2.741-6.707-3.689-10.252c-0.122-0.452-0.764-3.124-0.947-4.016    c-0.224-1.091-1.416-6.95-1.594-9.286c-0.554-7.597-0.314-15.798,1.031-22.738c1.557-6.37,3.288-12.317,6.45-17.709    c1.304-2.337,2.871-4.505,4.472-6.644c2.889-3.96,6.212-7.875,9.703-11.87c3.227-3.531,6.631-6.928,10.419-9.861    c2.834-2.143,7.475-5.084,11.141-7.166c2.305-1.34,4.653-2.603,7.021-3.828c2.588-1.391,5.226-2.686,7.936-3.823    c3.396-1.442,9.143-3.085,13.006-3.319c2.523-0.182,5.054-0.008,7.573,0.161c2.779,0.2,5.561,0.374,8.332,0.668    c5.214,0.542,11.506,1.034,16.022,1.654c3.065,0.387,6.096,0.985,9.136,1.531c1.514,0.255,3.029,0.538,4.565,0.626    c0.959,0.054,1.92-0.029,2.878-0.078c3.166-0.063,6.942-1.275,9.177-2.307c2.434-1.013,4.787-2.228,6.902-3.812    c2.251-1.699,4.349-3.59,6.468-5.449c2.461-2.155,4.865-4.373,7.143-6.722c4.543-4.63,9.39-8.948,13.944-13.565    c-0.726,1.26-1.441,2.527-2.138,3.804c-0.623,1.221-1.402,2.392-1.889,3.667c-0.109,0.7,0.93,1.189,1.357,0.301    c0.982-1.609,1.896-3.259,2.84-4.891c1.661-2.956,3.423-5.859,5.117-8.798c0.192-0.256,0.381-0.514,0.568-0.772    c0.048-0.076,0.075-0.158,0.079-0.247c0.008-0.043,0.011-0.086,0.009-0.129c1.072-1.89,2.109-3.8,3.065-5.752    c2.291-4.774,4.345-9.655,6.264-14.589c1.424-3.561,2.871-7.118,4.09-10.755c1.911-5.908,3.386-11.941,5.161-17.889    c0.621-2.079,1.367-4.116,2.125-6.148c0.742-1.982,1.414-3.991,2.176-5.966c0.605-1.491,1.925-4.229,3.251-6.07    c0.733-1.017,1.169-1.556,2.223-2.639c0.62-0.543,0.649-0.601,1.215-0.973c0.424-0.095,0.87-0.383,1.169-0.533    c0.024,0.098,0.056,0.192,0.128,0.267c0.037,0.054,0.083,0.097,0.134,0.134c-2.02,1.656-3.895,3.484-5.461,5.582    c-0.779,1.01-1.481,2.077-2.062,3.214c-0.587,1.111-1.013,2.332-0.977,3.603c0.005,0.203-0.008,0.427,0.085,0.607    c-0.411,0.866-0.746,1.767-0.981,2.705c-0.083,0.398-0.112,0.805-0.144,1.21c-0.055,0.14-0.1,0.281-0.07,0.43    c0.066,0.686,1.093,0.757,1.266,0.086c0.774-2.564,3.417-4.864,5.926-7.131c1.597-1.378,3.121-2.637,4.685-3.832    c1.364-1.369,2.891-2.575,4.605-3.222c0.536-0.341,1.086-0.681,1.655-1.019c0.27-0.179,0.556-0.339,0.852-0.488    c2.173-1.203,4.097-2.056,5.875-2.73c-0.516,0.846-0.993,1.719-1.474,2.574c-0.804,1.48-1.563,2.983-2.331,4.481    c-0.252,0.605-0.727,1.147-0.843,1.793c-0.019,0.631,0.796,0.982,1.26,0.571c0.202-0.176,1.429-1.24,1.107-0.951    c1.673-1.114,3.456-2.05,5.188-3.065c4.285-2.42,8.366-5.945,10.396-10.478c-0.154,2.034-0.706,4.15-1.507,5.707    c-1.655,3.104-4.344,5.176-6.702,8.072c-0.005,0.004-0.01,0.008-0.014,0.011c0.003-0.003,0.01-0.008,0.014-0.011    c-0.062,0.076-0.127,0.147-0.188,0.225c-0.214,0.439,0.248,0.971,0.716,0.824c0.385-0.164,0.692-0.472,1.047-0.692    c3.81-2.77,7.529-3.9,11.398-6.664c1.26-0.951,2.561-1.903,3.572-3.126c0.619-0.807,1.104-1.721,1.452-2.679    c0.03-0.055,0.059-0.11,0.088-0.164C386.532,57.812,387.509,53.434,385.321,50.511z M292.575,410.393    c0.816-2.414,1.736-4.793,2.473-7.233c1.556-5.031,2.847-10.394,4.709-13.966c1.384-2.609,2.762-4.278,4.48-6.297    c0.879-0.983,1.722-1.999,2.537-3.036c1.695-1.417,2.639-6.315,2.53-7.532c-0.175-1.949,0.384-3.874,0.422-5.82    c0.169-4.541-2.91-7.398-4.969-10.232c-2.806-4.048-4.062-7.736-5.379-12.443c-0.607-2.052-0.998-4.157-1.315-6.271    c-0.266-1.73-0.485-3.339-0.674-5.127c5.301,1.838,6.894,3.436,10.242,7.895c1.302,1.713,2.661,3.382,4.006,5.061    c0.197,0.241,0.393,0.483,0.589,0.724c0.611,0.789,1.261,1.548,1.946,2.271c0.35,0.339,0.737,0.638,1.125,0.931    c0.086,0.07,0.179,0.14,0.276,0.2c-0.656,3.528-1.103,7.093-1.204,10.684c-0.214,6.584,0.43,13.164,1.013,19.716    c0.243,2.598,0.563,5.189,0.968,7.767c0.358,2.453,0.734,4.472,0.71,7.387c-0.131,3.063-0.271,4.906-1.203,7.839    c-0.381,1.098-1.238,2.705-2.118,4.226c-0.872,1.56-1.692,3.173-2.061,4.936c-0.352,1.391-0.471,2.841-0.967,4.194    c-0.227,0.685-0.625,1.325-1.223,2.033c-1.784,2.118-3.264,2.977-5.372,4.512c-0.429,0.308-0.86,0.611-1.294,0.911    c-0.178,0.112-0.354,0.24-0.46,0.418c-0.131,0.023-0.262,0.042-0.393,0.058c-0.132-0.156-0.3-0.185-0.448-0.343    c-0.366-0.254-0.729-0.516-1.154-0.666c-0.351-0.145-0.73-0.199-1.1-0.271c-1.22-0.203-1.219-0.197-2.358-0.377    c-1.343-0.236-2.661-0.621-3.926-1.13c-0.934-0.411-1.853-0.872-2.835-1.156c-0.132-0.026-0.268-0.064-0.406-0.101    C290.534,416.858,291.528,413.614,292.575,410.393z M281.758,445.163c0.396-1.507,0.505-3.232,0.661-4.086    c0.158-1.22,2.444-2.905,3.866-4.775c0.332-0.427,0.695-0.84,0.945-1.323c0.32-0.627,0.523-1.307,0.669-1.994    c0.394-1.816,0.467-3.677,0.653-5.52c0.205-1.92,0.42-3.521,0.813-5.562c0.951,0.241,1.24,0.456,2.334,0.967    c1.234,0.565,2.524,1.043,3.863,1.283c0.937,0.178,1.885,0.27,2.834,0.351c-0.883,0.211-1.733,0.57-2.48,1.083    c-1.879,1.392-3.221,3.367-4.393,5.362c-1.16,1.936-2.042,4.023-2.695,6.182c-0.497,1.536-0.932,3.096-1.152,4.697    c-0.206,1.266-0.221,2.549-0.158,3.827c-0.978-0.083-1.961,0.044-2.934,0.161c-0.931,0.12-1.741,0.07-2.025,0.001    c-0.309-0.063-0.614-0.14-0.917-0.228C281.682,445.445,281.722,445.305,281.758,445.163z M249.231,445.996    c-0.202,1.28-0.437,3.105-0.843,4.951c-0.444,1.999-1.064,3.957-1.758,5.882c-0.439,1.146-0.406,1.144-0.918,2.155    c-0.451,0.747-0.256,0.503-0.8,1.053c-0.042,0.032-0.21,0.2-1.086,0.355c-1.136,0.166-3.285-0.035-4.946-0.312    c-2.953-0.506-4.71-1.007-7.059-2.586c-2.807-1.824-4.694-3.884-5.638-6.947c-0.426-1.311-0.641-2.676-0.934-4.02    c-0.379-1.875-0.816-4.111-0.94-5.319c-0.046-0.574-0.124-1.152-0.086-1.728c0.213-0.927,0.358-1.19,0.63-1.773    c0.877-1.846,2.327-3.346,3.268-5.151c0.23,1.027,0.511,2.04,0.939,3.003c0.469,0.946,1.106,1.805,1.797,2.6    c3.126,3.164,8.683,5.835,13.119,6.221c1.817,0.232,3.697,0.285,5.467-0.229C249.4,444.984,249.345,445.372,249.231,445.996z     M256.152,451c1.418,2.411,3.554,4.349,6.015,5.66c1.725,0.927,3.609,1.664,5.586,1.735c1.706,0.09,3.349-0.502,4.841-1.281    c1.255-0.612,2.387-1.411,3.407-2.338c-0.001,0.001-0.001,0.003-0.001,0.004c-0.35,0.878-2.176,5.234-2.92,6.207    c-0.324,0.431-1.033,1.316-2.328,1.992c-1.957,1.051-4.438,1.225-7.435,1.301c-1.549-0.03-2.564-0.178-3.502-0.326    c-1.5-0.26-1.85-0.35-2.948-0.943c-2.921-1.576-3.988-4.424-4.313-7.905c-0.34-2.479-0.684-3.747-0.748-6.15    c-0.024-2.475,0.008-3.861,0.8-6.131c0.159-0.525,0.291-0.827,0.486-1.223c0.193,0.911,0.432,1.816,0.622,2.719    C254.235,446.638,254.84,448.988,256.152,451z M275.159,345.681c1.142,1.363,1.551,1.89,2.61,3.353    c0.607,0.847,1.207,1.703,1.674,2.637c0.663,1.297,0.79,1.751,1.542,3.685c0.648,1.715,1.27,3.442,1.697,5.227    c0.456,1.995,0.82,4.008,1.273,6.003c0.071,0.313,0.143,0.626,0.214,0.939c-0.18,0.549-0.343,1.103-0.466,1.669    c-0.347,1.6-0.491,3.249-0.448,4.885c0.129,1.681,0.409,3.355,0.723,5.012c0.209,1.017,0.552,2,0.791,3.01    c0.231,1.046,0.207,1.162,0.299,2.422c0.286,3.602-0.387,5.947-1.083,9.485c-0.422,2.051-0.944,4.086-1.612,6.071    c-0.253,0.748-0.883,1.952-1.601,3.053c-2.299,3.21-4.582,6.432-6.948,9.594c-3.051,4.202-4.115,5.469-4.813,10.801    c-0.201,1.332-0.381,2.672-0.719,3.978c-0.233,0.7-0.124,0.581-0.414,1.032c-0.029,0.032-0.059,0.063-0.091,0.092    c-0.003,0.001-0.005,0.003-0.008,0.004c-0.091,0.025-0.233,0.045-0.547,0.024c-0.555-0.049-0.453,0.003-1.259-0.253    c-0.644-0.213-1.246-0.562-1.914-0.694c-2.275-0.447-5.17,3.392-6.71,4.872c-0.982,0.982-1.995,1.931-2.928,2.962    c-0.799,0.838-1.659,1.768-1.669,2.996c-0.006,0.186-0.005,0.371,0.001,0.556c-0.034,0.018-0.066,0.039-0.097,0.062    c-0.03-0.845-0.171-1.692-0.308-2.524c-0.145-0.703-0.191-1.033-0.219-1.259c0.143-0.268,0.147-0.603,0.219-0.897    c0.106-0.597,0.156-1.202,0.165-1.807c0.022-1.471-0.003-2.943,0.036-4.415c0.12-2.456,0.166-3.887,0.747-5.974    c0.407-1.24,0.494-1.379,1.099-2.569c0.396-0.762,0.821-1.511,1.345-2.194c0.943-1.21,1.987-2.369,2.634-3.772    c0.339-0.707,0.467-1.485,0.536-2.26c0.078-0.976,0.073-1.972-0.141-2.932c-0.556-2.053-1.688-3.896-2.952-5.587    c-0.843-1.176-1.844-2.222-2.754-3.344c-0.61-0.748-1.742-2.302-2.577-3.678c-1.527-2.387-2.837-4.896-4.192-7.382    c-1.677-2.809-3.35-5.62-4.779-8.567c-1.124-2.302-2.029-4.135-2.71-6.372c0.016-0.035,0.029-0.073,0.038-0.113    c0.311-2.457,2.171-4.687,3.815-7.031c0.736-1.018,1.161-2.22,1.479-3.426c0.89-3.065,2.488-5.526,4.805-7.88    c1.787-1.685,2.906-2.433,4.936-3.877c1.957-1.276,3.983-2.456,6.058-3.529c1.453-0.71,1.831-0.81,3.191-1.409    c2.262-0.993,4.458-2.135,6.579-3.401c0.59-0.329,1.545-1.044,1.995-1.331C272.845,342.984,274.016,344.322,275.159,345.681z     M241.857,325.761c3.341,0.475,6.722,0.645,10.093,0.757c1.906,0.062,3.815,0.157,5.722,0.104c1.207-0.102,1.351-0.127,2.45-0.248    c0.917-0.105,0.878-0.094,1.979-0.228c0.069-0.009,0.142-0.016,0.216-0.024c0.392,1.235,0.82,2.457,1.401,3.623    c1.324,2.852,3.136,5.445,4.926,8.019c0.66,0.909,1.355,1.792,2.065,2.662c-0.044,0.031-0.087,0.062-0.117,0.085    c-0.908,0.663-1.913,1.178-2.914,1.684c-1.42,0.751-4.797,2.244-5.414,2.512c-1.202,0.515-2.433,0.97-3.585,1.595    c-2.906,1.588-5.748,3.313-8.338,5.384c-1.283,0.965-2.528,1.988-3.586,3.203c-1.653,1.838-3.018,3.94-3.9,6.255    c-0.686,1.897-0.733,3.15-1.714,4.549c-1.099,1.624-2.248,3.235-3.034,5.036c-0.067-0.381-0.131-0.762-0.195-1.144    c-0.025-0.103-0.072-0.192-0.142-0.269c-0.482-0.669-1.624-0.149-1.383,0.689c0.435,3.608,1.724,7.035,3.303,10.287    c1.136,2.385,2.344,4.737,3.738,6.983c1.073,1.732,2.047,3.521,2.998,5.322c0.876,1.571,1.821,3.101,2.781,4.621    c1.326,2.117,2.933,4.031,4.584,5.899c1.138,1.408,2.92,3.98,3.339,6.017c0.133,0.795,0.168,2.462-0.19,3.524    c-0.123,0.469-0.849,1.638-1.552,2.508c0.046-0.059,0.091-0.118,0.137-0.177c-0.595,0.764-1.237,1.495-1.774,2.302    c-0.763,1.211-1.421,2.495-1.933,3.832c-0.493,1.286-0.694,2.656-0.832,4.02c-0.14,1.386-0.226,2.776-0.225,4.169    c-0.038,2,0.098,4.032-0.253,5.392c-0.054,0.19-0.039,0.37,0.02,0.53c0.009,0.099,0.021,0.198,0.024,0.295    c0.053,0.811,0.21,1.61,0.321,2.414c0.002,0.02,0.005,0.04,0.007,0.059c0.005,0.073,0.009,0.098,0.01,0.09    c0.046,0.4,0.091,0.8,0.106,1.202c0.012,0.294,0.005,0.589-0.024,0.881c-0.191,1.078-0.37,1.43-0.654,1.716    c-0.025,0.028-0.053,0.055-0.081,0.082c-0.26,0.003-0.518,0.122-0.687,0.378c-0.34,0.116-0.788,0.209-1.398,0.297    c-1.603,0.206-5.002-0.082-6.981-0.721c-2.841-0.838-5.84-2.414-7.868-4.074c-1.474-1.217-2.345-2.508-2.796-3.633    c-0.559-1.569-0.868-3.213-1.204-4.841c-0.029-0.14-0.179-1.466-0.174-1.488c0.008-0.033,0.019-0.072,0.031-0.111    c0.242-0.428,0.674-0.667,1.456-0.915c0.703-0.218,1.445-0.278,2.144-0.511c0.818-0.281,1.619-0.656,2.305-1.188l-0.174,0.135    c0.362-0.252,1.793-1.366,1.891-1.534c0.539-0.925-0.401-4.117-0.77-5.271c-0.293-0.916-0.537-1.85-0.689-2.801    c-0.224-2.349-0.048-4.72-0.201-7.075c-0.112-2.346-0.493-4.675-1.048-6.956c-0.579-2.2-1.429-4.314-2.393-6.371    c-0.719-1.559-1.399-3.142-2.283-4.617c-1.521-2.485-3.232-4.852-4.941-7.21c-1.388-1.887-2.885-3.698-4.18-5.652    c-0.377-0.585-0.717-1.194-1.005-1.828c-0.069-0.154-0.112-0.247-0.09-0.191c-0.178-0.422-0.345-0.852-0.418-1.306    c-0.086-0.742-0.139-1.492-0.334-2.216c-0.586-2.046-1.836-3.81-2.838-5.664c-0.992-1.887-1.447-2.716-1.978-4.86    c-0.229-1.168-0.427-2.154-0.206-3.833c0.609-3.523,2.502-7.983,6.151-10.727c0.387-0.293,0.786-0.573,1.214-0.806    c1.008-0.551,2.067-1.001,3.079-1.543c1.712-0.911,3.401-1.876,5.004-2.97c3.11-2.089,5.687-4.845,7.998-7.772    C238.801,331.507,240.675,328.799,241.857,325.761z M196.4,302.471c-0.929-2.453-2.019-4.84-3.093-7.232    c-0.824-1.859-1.664-3.711-2.591-5.521c-0.656-1.279-1.291-2.569-1.925-3.86c0.012,0.016,0.021,0.031,0.035,0.047    c2.089,2.318,3.505,4.065,5.179,6.477c1.491,2.035,3.015,4.047,4.427,6.139c1.916,2.82,3.665,5.764,5.845,8.393    c-0.218-0.028-0.446,0.034-0.615,0.214c-1.718,1.758-3.296,3.656-4.594,5.747c-0.137,0.216-0.269,0.435-0.398,0.656    c-0.035-1.033-0.106-2.064-0.236-3.088C198.048,307.723,197.344,305.049,196.4,302.471z M203.595,459.232    c0.061-0.746,0.079-1.494,0.08-2.242c0.341,0.281,0.695,0.547,1.045,0.815c1.045,0.795,2.108,1.58,3.279,2.183    c3.595,1.762,7.659,2.53,11.651,2.356c0.543-0.056,0.251-0.024,0.753-0.096c0.086,0.798,0.145,1.623,0.195,2.525    c0.069,1.967,0.393,5.298-0.04,5.831c-0.463,0.493-4.073,1.647-6.305,1.449c-1.348-0.07-1.681-0.157-3.126-0.446    c-1.898-0.454-2.88-0.794-4.501-1.973c-0.475-0.384-0.918-0.807-1.299-1.284c-0.498-0.681-0.915-1.418-1.267-2.184    c-0.445-0.931-0.82-2.327-0.797-3.64C203.295,461.422,203.512,460.333,203.595,459.232z M168.858,195.861    c-0.129,0.515-6.979,7.71-11.65,14.036c-1.419,1.922-2.851,3.84-4.038,5.917c-3.261,5.365-5.166,11.409-6.686,17.465    c-0.555,2.13-0.832,4.316-1.095,6.498c-0.283,2.483-0.488,4.974-0.541,7.473c-0.033,3.029-0.011,6.064,0.191,9.087    c0.04,0.167,0.068,0.34,0.08,0.515c0.082,1.151,0.295,2.48,0.344,3.781c0.301,2.206,0.728,4.392,1.195,6.568    c0.153,0.714,0.309,1.427,0.467,2.139c-1.139,1.746-2.046,2.844-3.604,4.449c-0.808,0.799-1.648,1.566-2.503,2.315    c0.77-1.325,1.461-2.695,2.043-4.112c0.182-0.491,0.443-1.014,0.364-1.546c-0.068-0.461-0.588-0.768-1.016-0.56    c-0.226,0.069-0.335,0.295-0.471,0.47c-0.758,1.011-1.013,1.46-1.609,2.211c-1.45,1.88-3.72,4.677-5.62,6.975    c-3.219,3.501-6.583,6.21-10.096,8.828c-1.693,1.257-3.402,2.508-5.181,3.642c2.177-2.024,4.152-4.271,5.866-6.692    c1.36-2.025,2.625-4.122,3.611-6.357c0.352-0.989,1.005-2.001,0.93-3.072c-0.214-0.763-1.164-0.609-1.502-0.022    c-6.541,8.39-11.775,14.598-22.136,18.27c-3.574,1.357-7.29,2.28-10.928,3.44c-3.872,1.192-7.392,2.489-10.876,3.89    c7.671-4.958,14.716-10.371,21.579-16.134c0.756-0.706,1.691-1.329,2.211-2.234c0.137-0.437-0.282-0.929-0.736-0.837    c-0.129,0.065-0.271,0.147-0.418,0.234c0.004-0.005,0.009-0.012,0.012-0.015c-0.005,0.006-0.011,0.011-0.016,0.017    c-1.223,0.723-3.001,2.112-4.268,2.832c-5.21,3.283-10.636,6.22-16.195,8.867c-6.492,2.929-13.12,5.707-18.969,9.831    c-4.94,3.551-8.73,7.038-10.589,12.343c0.145-2.064,0.499-3.943,1.054-6.206c1.75-7.474,6.004-14.067,11.125-19.561    c5.445-5.677,11.279-9.693,17.769-14.017c3.757-2.585,7.651-4.957,11.518-7.371c0.969-0.626,2.439-1.615,2.934-2.023    c0.488-0.491,1.802-1.003,1.429-1.844c-0.349-0.623-1.086-0.174-1.506,0.131c-0.655,0.43-1.305,0.868-1.962,1.295    c-3.337,2.193-6.768,4.241-10.271,6.156c-4.557,2.437-9.2,4.728-13.965,6.729c-2.554,1.01-6.578,2.749-9.541,2.352    c3.221-1.304,7.243-3.083,10.405-4.984c12.668-7.407,24.235-16.71,34.213-27.469c8.819-9.448,16.921-19.521,25.169-29.462    c3.614-4.298,7.315-8.533,11.304-12.489c2.996-2.929,5.35-5.197,8.776-7.227c3.539-2.017,6.528-3.265,10.217-4.435    c1.306-0.413,2.644-0.702,3.993-0.931C169.4,195.297,169.126,195.576,168.858,195.861z M286.448,163.553    c-0.324,0.008-0.423,0.195-0.536,0.175c-2.172,0.865-4.836,1.172-7.62,1.224c2.958-0.649,6.003-1.59,8.54-2.866    c1.497-0.729,2.979-1.554,4.227-2.663C289.526,160.802,287.996,162.188,286.448,163.553z M345.105,64.042    c-0.06,0.016-0.12,0.038-0.178,0.075c-1.699,0.981-2.994,2.483-4.165,4.029c-0.087,0.116-0.165,0.238-0.25,0.356    c-1.104,1.529-3.937,7.66-4.841,10.151c-0.968,2.668-2.042,5.3-2.873,8.016c-2.021,6.509-3.542,13.17-5.771,19.616    c-1.216,3.399-2.578,6.743-3.91,10.098c-1.708,4.39-3.146,7.798-5.163,12.132c-1.493,3.309-3.328,6.443-5.137,9.586    c-1.399,1.631-3.097,3.366-4.674,4.884c-2.957,2.973-6.081,5.771-9.134,8.643c-2.638,2.487-5.119,5.135-7.758,7.621    c-0.059,0.053-0.118,0.107-0.177,0.16c0.175-0.156,0.346-0.318,0.512-0.486c0.471-0.614,1.932-1.738,0.951-2.465    c-4.62-1.414-9.515-0.635-14.152,0.309c-6.075,1.108-11.628,2.974-17.487,3.277c6.008-0.931,13.069-3.385,16.887-7.587    c1.433-1.651,3.901-5.742,0.677-6.809c-0.924-0.14-1.851,0.177-2.743,0.385c-1.46,0.397-2.908,0.837-4.355,1.28    c-11.278,3.405-21.099,5.417-32.377,3.493c-4.387-0.686-8.753-1.663-12.955-3.111c-1.752-0.676-3.745-1.53-5.735-2.498    c0.549,0.102,1.099,0.199,1.648,0.298c9.024,1.395,18.341,2.64,27.41,0.983c4.778-1.176,9.415-3.036,13.467-5.857    c3.586-2.637,6.952-5.709,9.519-9.364c0.836-1.156,1.593-2.367,2.434-3.518c0.323-0.538-0.309-1.187-0.852-0.864    c-2.356,1.442-4.845,2.674-7.375,3.782c-5.335,2.335-12.857,4.581-18.847,4.975c-7.383,0.653-15.27,0.046-21.742-2.098    c8.638,0.169,17.156-2.312,24.84-6.163c6.805-3.226,12.29-8.653,16.66-14.704c2.02-2.806,4.229-5.982,5.848-7.854    c2.188-2.652,4.077-4.38,6.704-5.277c0.478-0.321,0.129-1.152-0.447-1.028c-1.635,0.096-3.261,0.301-4.888,0.485    c-9.889,1.324-21.114,2.722-28.796,9.394c0.078-0.086,0.155-0.172,0.234-0.257c1.774-1.859,3.466-3.829,5.524-5.387    c3.956-2.981,9.387-5.665,14.755-6.84c6.412-1.336,13.095-1.279,19.947-2.006c4.265-0.454,8.497-1.333,12.548-2.75    c1.642-0.593,3.186-1.417,4.714-2.254c0.477-0.269,0.955-0.538,1.413-0.837c0.227-0.158,0.493-0.303,0.574-0.585    c0.131-0.486-0.405-0.913-0.867-0.696c-10.146,2.73-20.884,1.531-31.122-0.502c-2.573-0.568-5.166-1.091-7.695-1.83    c11.453,0.417,23.036,0.83,34.218-2.041c5.767-1.403,11.603-3.26,16.277-7.052c3.439-2.723,6.156-6.214,8.899-9.606    c2.022-2.532,4.967-6.039,7.78-8.821c3.402-3.265,6.467-5.659,10.831-7.744c1.012-0.423,2.971-1.242,4.417-1.569    c-1.822,4.406-5.297,8.663-3.554,13.848c0.253,0.753,0.619,1.456,0.992,2.154C345.536,63.74,345.316,63.884,345.105,64.042z     M346.309,61.264c-1.34-3.686-0.079-6.146,1.71-9.375c0.808-1.513,1.481-3.093,1.994-4.729c0.851-2.564,1.431-4.34,2.687-6.583    c1.18-1.808,2.273-3.061,4.206-4.968c1.024-0.957,2.269-2.201,3.277-2.997c-0.182,1.332-0.342,3.011-0.281,4.584    c0.055,1.975,0.373,3.931,0.751,5.868c0.361,1.868,0.836,3.714,1.116,5.598c0.082,0.38,0.055,0.557,0.158,1.244    c0.049,0.322,0.457,3.257-0.669,4.922c-0.645,0.954-1.529,1.632-2.842,2.501c-0.785,0.5-1.572,0.998-2.357,1.498    c0.365-0.411,0.693-0.853,0.959-1.349c0.517-0.963,0.959-1.977,1.159-3.057c0.255-1.638,0.332-3.311,0.249-4.966    c-0.189-2.002-0.524-4.002-0.38-6.02c0.072-1.179,0.158-2.394,0.28-3.123c0.009-0.052,0.02-0.103,0.03-0.155    c0.179-0.691,0.346-1.385,0.466-2.09c0.053-0.401,0.137-0.816,0.053-1.217c-0.116-0.449-0.724-0.617-1.046-0.277    c-0.182,0.173-0.192,0.434-0.233,0.666c-0.003,0.02-0.005,0.038-0.008,0.055c-0.22,1.445-0.713,2.188-1.599,3.519    c-0.824,1.334-2.057,2.355-3.2,3.901c-0.306,0.408-0.514,0.877-0.725,1.339c-0.275,0.61-0.522,1.279-0.508,1.952    c0.079,0.788,1.241,0.863,1.443,0.099c0.317-2.48,2.348-3.852,3.86-6.259c-0.122,1.171-0.178,2.307-0.197,2.791    c-0.036,1.709,0.228,3.403,0.307,5.107c0.015,0.944-0.053,1.888-0.125,2.829c-0.103,1.131-0.146,1.72-0.612,3.07    c-0.148,0.379-0.589,1.387-1.154,2.157c-0.323,0.395-0.689,0.753-1.054,1.108c-0.77,0.756-1.603,1.445-2.355,2.22    c-0.23,0.275-0.63,0.484-0.632,0.881c-0.002,0.049,0.005,0.095,0.015,0.14c-0.65,0.458-1.295,0.923-1.929,1.404    c-0.486,0.354-0.967,0.715-1.443,1.084c-0.087-0.451-0.372-0.952-0.498-1.286C346.861,62.593,346.608,62.201,346.309,61.264z     M383.625,60.1c-0.516,1.142-2.36,3.919-2.92,4.344c-0.791,0.63-3.385,2.396-4.914,3.215c-1.287,0.707-2.757,1.522-4.166,2.36    c1.755-1.854,3.392-3.833,4.085-6.327c0.656-2.273,0.834-3.942,0.691-6.419c-0.017-0.363-0.06-0.725-0.135-1.08    c0.004-0.022,0.011-0.043,0.016-0.064c-0.009-0.102-0.045-0.184-0.093-0.257c-0.029-0.104-0.058-0.209-0.095-0.312    c-0.038-0.139-0.131-0.257-0.254-0.33c-0.405-0.252-0.953,0.164-0.811,0.623c0.015,0.063,0.025,0.129,0.039,0.193    c-0.389,1.125-0.852,2.44-1.156,3.068c-1.105,2.234-2.189,3.548-3.847,5.215c-2.151,2.076-4.262,3.421-7.084,4.956    c-0.912,0.542-1.868,1.028-2.789,1.564c1.162-2.244,2.287-4.511,3.68-6.62c0.582-0.844,0.605-0.944,1.212-1.57    c0.228-0.272,0.583-0.459,0.726-0.79c0.347-0.703-0.663-1.376-1.193-0.804c-0.754,0.672-1.389,1.448-1.961,2.272    c-0.077-0.118-0.198-0.215-0.369-0.269c-0.299-0.082-0.584,0.094-0.867,0.169c-0.553,0.183-1.101,0.384-1.637,0.613    c-3.807,1.547-7.322,3.724-10.606,6.179c-2.557,1.903-5.037,3.912-7.367,6.088c-0.79,0.763-1.58,1.54-2.307,2.368    c0.516-0.921,1.139-1.84,1.808-2.747c0.749-0.982,2.71-3.151,4.13-4.288c1.316-1.094,2.726-2.042,4.502-3.063    c2.123-1.196,4.333-2.225,6.505-3.327c2.459-1.262,4.869-2.623,7.207-4.097c0.55-0.281,0.366-1.147-0.274-1.149    c-0.189-0.006-0.342,0.104-0.497,0.196c-0.296,0.174-0.594,0.344-0.891,0.515c-1.059,0.609-2.127,1.201-3.189,1.804    c-5.286,3.003-11.244,5.075-15.61,9.465c-1.077,1.089-2.118,2.257-3.035,3.509c0.257-0.507,0.579-1.084,0.882-1.557    c1.354-2.127,2.594-3.564,4.53-5.455c2.962-2.691,5.923-4.733,9.485-7.093c2.144-1.427,4.498-2.6,6.401-4.356    c3.659-3.376,1.404-9.403,1.346-9.755c0.414,0.263,0.847,0.495,1.298,0.688c0.541,0.231,3.761,1.283,6.497,1.837    c2.932,0.594,5.939,0.599,8.911,0.845c1.561,0.072,2.928,0.099,3.326,0.392C385.688,52.194,385.142,56.927,383.625,60.1z" fill="#ffffff"/>
		<path d="M377.109,100.628c-0.33-0.707-0.293-0.412-0.637-0.732c-1.599-1.1-2.161-1.767-3.934-2.961    c-0.991-0.552-2.113-0.855-3.23-1.019c-2.021-0.359-4.064,0.094-6.013,0.628c-0.654,0.238-1.674,0.257-2.203,0.6    c-0.877,0.621-0.154,2.06,0.874,1.755c0.452-0.089,0.878-0.182,1.283-0.274c-1.211,4.886,3.975,8.483,8.675,5.847    c1.268-0.714,2.176-1.981,2.442-3.413c0.011-0.033,0.023-0.084,0.034-0.145c0.255,0.192,0.522,0.386,0.811,0.58    c0.253,0.149,0.489,0.379,0.795,0.39C376.689,102.027,377.313,101.283,377.109,100.628z M371.124,100.438    c-0.099,0.006-0.23,0.009-0.321-0.004c-0.14-0.024-0.279-0.055-0.413-0.104c-0.018-0.009-0.037-0.017-0.055-0.027    c-0.038-0.02-0.075-0.043-0.112-0.066c-0.042-0.038-0.084-0.077-0.123-0.117c-0.033-0.049-0.067-0.097-0.094-0.149    c-0.037-0.106-0.066-0.213-0.088-0.322c-0.002-0.032-0.003-0.059-0.004-0.106c0.002-0.035,0.003-0.064,0.004-0.09    c0.015-0.08,0.03-0.16,0.056-0.237c0.082-0.173,0.17-0.344,0.292-0.494c-0.013,0.017-0.026,0.035-0.04,0.053    c0.049-0.132,0.276-0.188,0.506-0.412c0.623,0.213,1.188,0.586,1.784,1.05c-0.008,0.009-0.017,0.018-0.025,0.028    C371.7,100.256,371.856,100.257,371.124,100.438z" fill="#ffffff"/>
	</g>
</g>
</svg>